<?xml version="1.0" encoding="UTF-8"?>
<!DOCTYPE svg PUBLIC "-//W3C//DTD SVG 1.1//EN" "http://www.w3.org/Graphics/SVG/1.1/DTD/svg11.dtd">
<svg xmlns="http://www.w3.org/2000/svg" version="1.1" width="380px" height="156px" style="shape-rendering:geometricPrecision; text-rendering:geometricPrecision; image-rendering:optimizeQuality; fill-rule:evenodd; clip-rule:evenodd" xmlns:xlink="http://www.w3.org/1999/xlink">
<g><path style="opacity:0.994" fill="#f7cc17" d="M 328.5,155.5 C 322.167,155.5 315.833,155.5 309.5,155.5C 278.315,146.785 263.481,126.118 265,93.5C 265.346,91.7818 265.846,90.1151 266.5,88.5C 263.914,87.52 261.247,87.1866 258.5,87.5C 258.5,109.5 258.5,131.5 258.5,153.5C 245.92,153.822 233.42,153.489 221,152.5C 220.5,130.836 220.333,109.169 220.5,87.5C 216.167,87.5 211.833,87.5 207.5,87.5C 207.667,99.8378 207.5,112.171 207,124.5C 202.438,138.728 192.938,147.895 178.5,152C 163.447,155.316 149.114,153.483 135.5,146.5C 135.08,148.326 135.08,150.326 135.5,152.5C 121.484,152.833 107.484,152.499 93.5,151.5C 91.9281,147.041 90.5948,142.541 89.5,138C 83.8431,137.501 78.1764,137.334 72.5,137.5C 71.6706,142.486 70.3373,147.319 68.5,152C 54.8374,152.5 41.1707,152.667 27.5,152.5C 36.9541,119.915 47.2874,87.5821 58.5,55.5C 57.1851,53.6841 55.6851,52.0175 54,50.5C 38.6179,63.1386 23.9512,62.4719 10,48.5C 0.791236,27.084 6.9579,11.9173 28.5,3C 39.5494,0.17449 49.216,2.67449 57.5,10.5C 68.2346,0.851878 80.0679,-0.814789 93,5.5C 93.4828,4.55198 93.6495,3.55198 93.5,2.5C 102.839,2.33355 112.173,2.50021 121.5,3C 122.416,3.37424 123.25,3.87424 124,4.5C 128.582,3.19767 133.415,2.531 138.5,2.5C 143.167,2.66667 147.833,2.83333 152.5,3C 153.5,3.5 154.5,4 155.5,4.5C 166.342,3.18895 177.342,2.52228 188.5,2.5C 199.167,2.66667 209.833,2.83333 220.5,3C 222.025,4.00864 223.692,4.50864 225.5,4.5C 225.5,3.5 225.5,2.5 225.5,1.5C 232.508,1.33371 239.508,1.50038 246.5,2C 247.126,2.75044 247.626,3.58377 248,4.5C 262.981,-1.32627 274.314,2.67373 282,16.5C 278.535,18.9626 275.369,21.7959 272.5,25C 277.371,32.4563 277.704,40.1229 273.5,48C 275.061,48.3176 276.228,49.1509 277,50.5C 277.176,53.8818 277.676,57.2152 278.5,60.5C 296.3,45.9749 316.3,42.1415 338.5,49C 363.806,61.0957 374.973,81.2624 372,109.5C 366.885,133.78 352.385,149.113 328.5,155.5 Z"/></g>
<g><path style="opacity:1" fill="#f9faf9" d="M 229.5,14.5 C 230.468,12.3926 230.802,10.0593 230.5,7.5C 234.167,7.5 237.833,7.5 241.5,7.5C 241.187,10.2469 241.52,12.9135 242.5,15.5C 243.107,15.3764 243.44,15.0431 243.5,14.5C 254.164,3.82032 264.831,3.98698 275.5,15C 272.167,18.3333 268.833,21.6667 265.5,25C 274.135,35.1226 273.135,44.2892 262.5,52.5C 265.768,53.487 269.102,53.8204 272.5,53.5C 272.876,60.2147 273.709,66.8814 275,73.5C 285.405,58.3779 299.905,50.7112 318.5,50.5C 353.453,54.627 369.62,74.2937 367,109.5C 359.187,138.964 340.02,152.464 309.5,150C 281.128,141.457 267.961,122.29 270,92.5C 270.943,89.176 271.776,85.8426 272.5,82.5C 266.167,82.5 259.833,82.5 253.5,82.5C 253.5,104.5 253.5,126.5 253.5,148.5C 244.167,148.5 234.833,148.5 225.5,148.5C 225.5,126.5 225.5,104.5 225.5,82.5C 217.833,82.5 210.167,82.5 202.5,82.5C 202.667,95.8375 202.5,109.171 202,122.5C 197.587,137.654 187.421,146.154 171.5,148C 153.915,150.92 139.415,145.753 128,132.5C 126.5,132.667 125.667,133.5 125.5,135C 126.811,138.431 127.811,141.931 128.5,145.5C 117.931,146.818 107.265,146.818 96.5,145.5C 95.9423,141.208 94.9423,137.041 93.5,133C 85.1733,132.5 76.84,132.334 68.5,132.5C 67.7388,137.437 66.4054,142.103 64.5,146.5C 54.3194,146.827 44.3194,146.494 34.5,145.5C 44.0885,114.4 54.0885,83.4003 64.5,52.5C 60.1903,50.0238 56.6903,46.6905 54,42.5C 44.1039,54.0779 32.2706,56.5779 18.5,50C 9.67608,40.9969 8.17608,30.8302 14,19.5C 24.4123,6.49509 36.9123,3.99509 51.5,12C 53.5299,13.8962 55.1966,16.0629 56.5,18.5C 60.4596,14.0382 65.1263,10.5382 70.5,8C 80.82,5.21743 89.6533,7.71743 97,15.5C 97.567,12.8323 98.067,10.1656 98.5,7.5C 105.508,7.33371 112.508,7.50038 119.5,8C 122.698,8.84845 125.531,10.3485 128,12.5C 128.402,11.1279 128.902,9.79457 129.5,8.5C 136.476,7.33559 143.476,7.16892 150.5,8C 153.621,8.72614 156.287,10.2261 158.5,12.5C 159.95,11.1502 160.617,9.4835 160.5,7.5C 179.836,7.33338 199.17,7.50005 218.5,8C 222.822,9.15717 226.489,11.3238 229.5,14.5 Z"/></g>
<g><path style="opacity:1" fill="#fef2be" d="M 243.5,14.5 C 243.44,15.0431 243.107,15.3764 242.5,15.5C 241.52,12.9135 241.187,10.2469 241.5,7.5C 237.833,7.5 234.167,7.5 230.5,7.5C 230.802,10.0593 230.468,12.3926 229.5,14.5C 229.5,11.8333 229.5,9.16667 229.5,6.5C 233.833,6.5 238.167,6.5 242.5,6.5C 242.194,9.38544 242.527,12.0521 243.5,14.5 Z"/></g>
<g><path style="opacity:1" fill="#114f8a" d="M 29.5,11.5 C 38.7564,9.60464 46.4231,12.1046 52.5,19C 50.6667,20.8333 48.8333,22.6667 47,24.5C 42.283,17.2044 36.1163,15.7044 28.5,20C 20.59,27.4107 20.59,34.744 28.5,42C 35.5203,44.1242 40.8536,42.1242 44.5,36C 41.1832,35.5017 37.8499,35.335 34.5,35.5C 34.5,33.1667 34.5,30.8333 34.5,28.5C 40.8333,28.5 47.1667,28.5 53.5,28.5C 52.6791,42.3209 45.3458,49.3209 31.5,49.5C 18.5531,47.9903 13.0531,40.657 15,27.5C 17.9666,20.3716 22.7999,15.0383 29.5,11.5 Z"/></g>
<g><path style="opacity:1" fill="#13508b" d="M 74.5,10.5 C 92.0865,10.6692 98.9198,19.3358 95,36.5C 88.9537,47.6075 79.7871,51.7742 67.5,49C 60.8606,45.7192 57.5273,40.3859 57.5,33C 58.3973,21.9315 64.064,14.4315 74.5,10.5 Z"/></g>
<g><path style="opacity:1" fill="#14508b" d="M 254.5,10.5 C 260.464,9.59902 265.464,11.2657 269.5,15.5C 267.833,16.8333 266.167,18.1667 264.5,19.5C 261.532,17.3382 258.366,17.0048 255,18.5C 254.333,20.5 254.333,22.5 255,24.5C 258.421,26.4608 261.921,28.2941 265.5,30C 269.776,41.7604 265.61,48.5937 253,50.5C 248.111,50.4277 244.278,48.4277 241.5,44.5C 242.947,42.5968 244.614,40.9301 246.5,39.5C 249.559,43.3495 253.226,44.1828 257.5,42C 259.994,39.5769 259.994,37.2436 257.5,35C 246.45,32.1434 243.284,25.6434 248,15.5C 250.326,13.9343 252.492,12.2676 254.5,10.5 Z"/></g>
<g><path style="opacity:1" fill="#124f8b" d="M 102.5,11.5 C 108.176,11.3339 113.843,11.5006 119.5,12C 125.469,14.1033 127.636,18.27 126,24.5C 124.472,29.201 121.305,31.8677 116.5,32.5C 118.607,38.0479 121.274,43.3813 124.5,48.5C 121.5,49.8333 118.5,49.8333 115.5,48.5C 113.201,43.7076 110.701,39.041 108,34.5C 106.695,39.3985 105.862,44.3985 105.5,49.5C 102.833,49.5 100.167,49.5 97.5,49.5C 98.9037,36.7948 100.57,24.1281 102.5,11.5 Z"/></g>
<g><path style="opacity:1" fill="#124f8b" d="M 133.5,11.5 C 139.176,11.3339 144.843,11.5006 150.5,12C 157.396,14.7794 159.229,19.6127 156,26.5C 154.395,30.2759 151.562,32.2759 147.5,32.5C 149.607,38.0479 152.274,43.3813 155.5,48.5C 152.5,49.8333 149.5,49.8333 146.5,48.5C 144.201,43.7076 141.701,39.041 139,34.5C 137.597,39.3827 136.764,44.3827 136.5,49.5C 133.833,49.5 131.167,49.5 128.5,49.5C 130.022,36.8014 131.688,24.1348 133.5,11.5 Z"/></g>
<g><path style="opacity:1" fill="#114f8a" d="M 164.5,11.5 C 167.247,11.1866 169.914,11.52 172.5,12.5C 170.749,21.7553 169.916,31.0887 170,40.5C 174.551,44.5825 178.884,44.2491 183,39.5C 184.496,30.204 185.662,20.8707 186.5,11.5C 189.167,11.5 191.833,11.5 194.5,11.5C 193.62,21.9166 192.12,32.2499 190,42.5C 183.262,50.7659 175.096,52.5992 165.5,48C 163.951,46.786 162.785,45.286 162,43.5C 161.621,32.7422 162.454,22.0755 164.5,11.5 Z"/></g>
<g><path style="opacity:1" fill="#0d4e89" d="M 198.5,11.5 C 206.238,11.1439 213.905,11.6439 221.5,13C 229.088,19.8715 230.588,28.0382 226,37.5C 223.616,43.2746 219.449,47.108 213.5,49C 207.175,49.4995 200.842,49.6662 194.5,49.5C 195.833,36.8359 197.166,24.1693 198.5,11.5 Z"/></g>
<g><path style="opacity:0.984" fill="#195985" d="M 234.5,10.5 C 235.833,10.5 237.167,10.5 238.5,10.5C 238.5,15.5 238.5,20.5 238.5,25.5C 237.167,25.5 235.833,25.5 234.5,25.5C 234.5,20.5 234.5,15.5 234.5,10.5 Z"/></g>
<g><path style="opacity:1" fill="#fafbfd" d="M 73.5,18.5 C 86.4246,17.5846 90.9246,23.2513 87,35.5C 83.3449,42.0702 77.8449,44.2368 70.5,42C 64.5136,37.8317 63.0136,32.3317 66,25.5C 68.3697,22.9614 70.8697,20.6281 73.5,18.5 Z"/></g>
<g><path style="opacity:1" fill="#f5f7fa" d="M 109.5,18.5 C 117.524,17.2649 119.524,20.0982 115.5,27C 113.323,28.2022 110.989,28.7022 108.5,28.5C 108.46,25.1194 108.793,21.7861 109.5,18.5 Z"/></g>
<g><path style="opacity:1" fill="#f5f8fa" d="M 140.5,18.5 C 148.524,17.2649 150.524,20.0982 146.5,27C 144.323,28.2022 141.989,28.7022 139.5,28.5C 139.46,25.1194 139.793,21.7861 140.5,18.5 Z"/></g>
<g><path style="opacity:1" fill="#f5f7fa" d="M 205.5,18.5 C 209.637,18.1463 213.637,18.6463 217.5,20C 222.05,27.703 221.05,34.703 214.5,41C 210.94,42.2367 207.273,42.7367 203.5,42.5C 204.261,34.5084 204.927,26.5084 205.5,18.5 Z"/></g>
<g><path style="opacity:0.996" fill="#6d98b3" d="M 268.5,58.5 C 268.167,58.5 267.833,58.5 267.5,58.5C 248.833,58.5 230.167,58.5 211.5,58.5C 211.5,63.5 211.5,68.5 211.5,73.5C 211.5,75.1667 211.5,76.8333 211.5,78.5C 210.509,71.6866 210.175,64.6866 210.5,57.5C 230.007,57.1697 249.341,57.503 268.5,58.5 Z"/></g>
<g><path style="opacity:0.998" fill="#fcce09" d="M 159.5,57.5 C 162.85,57.335 166.183,57.5017 169.5,58C 170,58.5 170.5,59 171,59.5C 171.667,80.1667 171.667,100.833 171,121.5C 170.5,122 170,122.5 169.5,123C 166.167,123.667 162.833,123.667 159.5,123C 159,122.5 158.5,122 158,121.5C 157.333,100.833 157.333,80.1667 158,59.5C 158.717,58.9558 159.217,58.2891 159.5,57.5 Z"/></g>
<g><path style="opacity:0.999" fill="#fcd11e" d="M 102.5,58.5 C 108.5,58.5 114.5,58.5 120.5,58.5C 120.667,76.1698 120.5,93.8365 120,111.5C 114.064,93.8577 108.23,76.191 102.5,58.5 Z"/></g>
<g><path style="opacity:1" fill="#fffdf7" d="M 162.5,62.5 C 164.39,62.2965 165.89,62.9632 167,64.5C 167.667,82.5 167.667,100.5 167,118.5C 165.333,121.167 163.667,121.167 162,118.5C 161.181,99.7599 161.347,81.0932 162.5,62.5 Z"/></g>
<g><path style="opacity:0.999" fill="#fffcf2" d="M 108.5,63.5 C 111.167,63.5 113.833,63.5 116.5,63.5C 116.666,71.1739 116.5,78.8406 116,86.5C 113.393,78.8466 110.893,71.1799 108.5,63.5 Z"/></g>
<g><path style="opacity:0.996" fill="#6a97b7" d="M 148.5,58.5 C 142.167,58.5 135.833,58.5 129.5,58.5C 129.5,70.8333 129.5,83.1667 129.5,95.5C 129.5,103.167 129.5,110.833 129.5,118.5C 128.503,98.3402 128.17,78.0069 128.5,57.5C 135.354,57.176 142.021,57.5093 148.5,58.5 Z"/></g>
<g><path style="opacity:1" fill="#155989" d="M 267.5,58.5 C 267.5,63.5 267.5,68.5 267.5,73.5C 248.833,73.5 230.167,73.5 211.5,73.5C 211.5,68.5 211.5,63.5 211.5,58.5C 230.167,58.5 248.833,58.5 267.5,58.5 Z"/></g>
<g><path style="opacity:1" fill="#245e89" d="M 360.5,83.5 C 354.833,84.8333 349.167,84.8333 343.5,83.5C 344.582,82.4062 345.248,81.0729 345.5,79.5C 344.533,77.2383 343.866,74.905 343.5,72.5C 345.995,73.1989 348.328,74.1989 350.5,75.5C 349.721,70.879 347.055,68.7123 342.5,69C 341.056,70.126 340.39,71.626 340.5,73.5C 340.997,75.8183 341.33,78.1516 341.5,80.5C 338.5,80.8333 337.167,79.5 337.5,76.5C 336.5,76.5 335.5,76.5 334.5,76.5C 334.15,79.4534 335.15,81.7867 337.5,83.5C 336.29,83.9321 335.29,84.5987 334.5,85.5C 328.818,78.3268 321.484,75.6601 312.5,77.5C 312.167,76.8333 311.833,76.1667 311.5,75.5C 313.042,74.8592 314.376,73.8592 315.5,72.5C 313.647,71.2404 311.814,71.2404 310,72.5C 308.523,68.5701 307.356,64.5701 306.5,60.5C 305.167,60.5 303.833,60.5 302.5,60.5C 303.544,65.585 304.878,70.585 306.5,75.5C 303.391,75.2641 300.391,75.5975 297.5,76.5C 299.526,70.7043 297.526,67.871 291.5,68C 288.882,70.1057 286.882,72.6057 285.5,75.5C 284.833,74.8333 284.167,74.1667 283.5,73.5C 301.988,52.8298 322.988,49.9965 346.5,65C 352.92,69.9095 357.587,76.0761 360.5,83.5 Z"/></g>
<g><path style="opacity:0.999" fill="#e6c31a" d="M 320.5,57.5 C 321.822,57.33 322.989,57.6634 324,58.5C 323.744,61.6364 323.244,64.803 322.5,68C 322.754,71.8708 324.587,73.0375 328,71.5C 328.771,68.1409 329.605,64.8075 330.5,61.5C 331.689,60.5713 333.022,60.238 334.5,60.5C 333.523,64.8823 332.357,69.2157 331,73.5C 326.405,76.4477 322.405,75.7811 319,71.5C 318.523,66.7381 319.023,62.0714 320.5,57.5 Z"/></g>
<g><path style="opacity:0.999" fill="#e4c21c" d="M 311.5,75.5 C 309.602,76.0965 307.935,76.0965 306.5,75.5C 304.878,70.585 303.544,65.585 302.5,60.5C 303.833,60.5 305.167,60.5 306.5,60.5C 307.356,64.5701 308.523,68.5701 310,72.5C 311.814,71.2404 313.647,71.2404 315.5,72.5C 314.376,73.8592 313.042,74.8592 311.5,75.5 Z"/></g>
<g><path style="opacity:0.999" fill="#e9c519" d="M 343.5,83.5 C 341.5,84.8333 339.5,84.8333 337.5,83.5C 335.15,81.7867 334.15,79.4534 334.5,76.5C 335.5,76.5 336.5,76.5 337.5,76.5C 337.167,79.5 338.5,80.8333 341.5,80.5C 341.33,78.1516 340.997,75.8183 340.5,73.5C 340.39,71.626 341.056,70.126 342.5,69C 347.055,68.7123 349.721,70.879 350.5,75.5C 348.328,74.1989 345.995,73.1989 343.5,72.5C 343.866,74.905 344.533,77.2383 345.5,79.5C 345.248,81.0729 344.582,82.4062 343.5,83.5 Z"/></g>
<g><path style="opacity:1" fill="#206699" d="M 267.5,58.5 C 267.833,58.5 268.167,58.5 268.5,58.5C 268.5,65.1667 268.5,71.8333 268.5,78.5C 262.5,78.5 256.5,78.5 250.5,78.5C 250.5,100.167 250.5,121.833 250.5,143.5C 250.167,143.5 249.833,143.5 249.5,143.5C 249.5,127.167 249.5,110.833 249.5,94.5C 243.167,94.5 236.833,94.5 230.5,94.5C 230.821,88.9738 230.488,83.6405 229.5,78.5C 223.5,78.5 217.5,78.5 211.5,78.5C 211.5,76.8333 211.5,75.1667 211.5,73.5C 230.167,73.5 248.833,73.5 267.5,73.5C 267.5,68.5 267.5,63.5 267.5,58.5 Z"/></g>
<g><path style="opacity:0.999" fill="#e0c122" d="M 297.5,76.5 C 296.522,76.811 295.855,77.4777 295.5,78.5C 296.711,79.8745 297.711,81.3745 298.5,83C 298.387,84.2798 297.72,85.1131 296.5,85.5C 292.813,82.1446 289.147,78.8113 285.5,75.5C 286.882,72.6057 288.882,70.1057 291.5,68C 297.526,67.871 299.526,70.7043 297.5,76.5 Z"/></g>
<g><path style="opacity:0.998" fill="#3a6681" d="M 291.5,71.5 C 292.5,71.5 293.5,71.5 294.5,71.5C 294.884,73.6648 294.217,75.3315 292.5,76.5C 290.296,75.218 289.962,73.5514 291.5,71.5 Z"/></g>
<g><path style="opacity:1" fill="#1c6295" d="M 108.5,97.5 C 101.798,97.9035 95.1317,98.5702 88.5,99.5C 86.096,93.7868 83.596,88.1201 81,82.5C 78.238,89.6399 75.4046,96.6399 72.5,103.5C 72.2089,102.351 71.3756,101.684 70,101.5C 64.1662,102.567 58.3329,103.567 52.5,104.5C 56.7481,89.4193 61.4148,74.4193 66.5,59.5C 76.4778,58.5015 86.4778,58.1681 96.5,58.5C 100.5,71.5 104.5,84.5 108.5,97.5 Z"/></g>
<g><path style="opacity:1" fill="#fbfcfd" d="M 334.5,85.5 C 337.709,91.0089 339.042,97.0089 338.5,103.5C 336.855,119.321 328.189,126.487 312.5,125C 301.441,119.727 296.441,110.894 297.5,98.5C 298.301,88.3839 303.301,81.3839 312.5,77.5C 321.484,75.6601 328.818,78.3268 334.5,85.5 Z"/></g>
<g><path style="opacity:1" fill="#176195" d="M 148.5,58.5 C 148.5,70.5 148.5,82.5 148.5,94.5C 142.162,94.7671 135.829,95.1005 129.5,95.5C 129.5,83.1667 129.5,70.8333 129.5,58.5C 135.833,58.5 142.167,58.5 148.5,58.5 Z"/></g>
<g><path style="opacity:1" fill="#f8fafc" d="M 88.5,99.5 C 89.5413,103.254 90.8746,106.92 92.5,110.5C 85.1968,111.497 77.8635,111.831 70.5,111.5C 70.9628,108.779 71.6295,106.112 72.5,103.5C 75.4046,96.6399 78.238,89.6399 81,82.5C 83.596,88.1201 86.096,93.7868 88.5,99.5 Z"/></g>
<g><path style="opacity:1" fill="#1c6599" d="M 283.5,73.5 C 284.167,74.1667 284.833,74.8333 285.5,75.5C 289.147,78.8113 292.813,82.1446 296.5,85.5C 297.72,85.1131 298.387,84.2798 298.5,83C 297.711,81.3745 296.711,79.8745 295.5,78.5C 295.855,77.4777 296.522,76.811 297.5,76.5C 300.391,75.5975 303.391,75.2641 306.5,75.5C 307.935,76.0965 309.602,76.0965 311.5,75.5C 311.833,76.1667 312.167,76.8333 312.5,77.5C 303.301,81.3839 298.301,88.3839 297.5,98.5C 289.875,97.5979 282.209,96.9312 274.5,96.5C 275.027,87.7924 278.027,80.1258 283.5,73.5 Z"/></g>
<g><path style="opacity:0.975" fill="#5589af" d="M 198.5,118.5 C 198.5,110.167 198.5,101.833 198.5,93.5C 198.5,81.8333 198.5,70.1667 198.5,58.5C 192.5,58.5 186.5,58.5 180.5,58.5C 180.5,70.1667 180.5,81.8333 180.5,93.5C 180.825,100.687 180.491,107.687 179.5,114.5C 179.5,95.5 179.5,76.5 179.5,57.5C 186.167,57.5 192.833,57.5 199.5,57.5C 199.83,78.0069 199.497,98.3402 198.5,118.5 Z"/></g>
<g><path style="opacity:1" fill="#176195" d="M 198.5,93.5 C 192.5,93.5 186.5,93.5 180.5,93.5C 180.5,81.8333 180.5,70.1667 180.5,58.5C 186.5,58.5 192.5,58.5 198.5,58.5C 198.5,70.1667 198.5,81.8333 198.5,93.5 Z"/></g>
<g><path style="opacity:1" fill="#044b87" d="M 180.5,93.5 C 186.5,93.5 192.5,93.5 198.5,93.5C 198.5,101.833 198.5,110.167 198.5,118.5C 197.044,130.231 190.711,138.064 179.5,142C 164.989,146.641 151.322,144.974 138.5,137C 132.955,132.077 129.955,125.91 129.5,118.5C 129.5,110.833 129.5,103.167 129.5,95.5C 135.829,95.1005 142.162,94.7671 148.5,94.5C 148.334,101.841 148.5,109.174 149,116.5C 149.541,122.1 152.374,125.934 157.5,128C 161.833,128.667 166.167,128.667 170.5,128C 176.614,125.613 179.614,121.113 179.5,114.5C 180.491,107.687 180.825,100.687 180.5,93.5 Z"/></g>
<g><path style="opacity:0.973" fill="#7da2c1" d="M 229.5,78.5 C 230.488,83.6405 230.821,88.9738 230.5,94.5C 230.5,110.833 230.5,127.167 230.5,143.5C 236.833,143.5 243.167,143.5 249.5,143.5C 249.833,143.5 250.167,143.5 250.5,143.5C 243.687,144.491 236.687,144.825 229.5,144.5C 229.5,122.5 229.5,100.5 229.5,78.5 Z"/></g>
<g><path style="opacity:1" fill="#004986" d="M 230.5,94.5 C 236.833,94.5 243.167,94.5 249.5,94.5C 249.5,110.833 249.5,127.167 249.5,143.5C 243.167,143.5 236.833,143.5 230.5,143.5C 230.5,127.167 230.5,110.833 230.5,94.5 Z"/></g>
<g><path style="opacity:1" fill="#034b87" d="M 274.5,96.5 C 282.209,96.9312 289.875,97.5979 297.5,98.5C 296.441,110.894 301.441,119.727 312.5,125C 328.189,126.487 336.855,119.321 338.5,103.5C 346.833,104.833 355.167,106.167 363.5,107.5C 357.096,135.068 339.763,147.901 311.5,146C 286.031,139.359 273.698,122.859 274.5,96.5 Z"/></g>
<g><path style="opacity:1" fill="#0b4d89" d="M 108.5,97.5 C 114.276,112.496 119.276,127.829 123.5,143.5C 115.833,143.5 108.167,143.5 100.5,143.5C 99.6279,138.473 98.6279,133.473 97.5,128.5C 86.8333,128.5 76.1667,128.5 65.5,128.5C 64.8152,133.239 63.8152,137.905 62.5,142.5C 54.7572,143.13 47.4238,142.463 40.5,140.5C 43.9243,128.227 47.9243,116.227 52.5,104.5C 58.3329,103.567 64.1662,102.567 70,101.5C 71.3756,101.684 72.2089,102.351 72.5,103.5C 71.6295,106.112 70.9628,108.779 70.5,111.5C 77.8635,111.831 85.1968,111.497 92.5,110.5C 90.8746,106.92 89.5413,103.254 88.5,99.5C 95.1317,98.5702 101.798,97.9035 108.5,97.5 Z"/></g>
<g><path style="opacity:0.999" fill="#1a689f" d="M 337.5,83.5 C 339.5,84.8333 341.5,84.8333 343.5,83.5C 349.167,84.8333 354.833,84.8333 360.5,83.5C 363.213,91.2138 364.213,99.2138 363.5,107.5C 355.167,106.167 346.833,104.833 338.5,103.5C 339.042,97.0089 337.709,91.0089 334.5,85.5C 335.29,84.5987 336.29,83.9321 337.5,83.5 Z"/></g>
<g><path style="opacity:0.972" fill="#618cb3" d="M 40.5,140.5 C 47.4238,142.463 54.7572,143.13 62.5,142.5C 55.0182,143.492 47.3516,143.825 39.5,143.5C 39.2627,142.209 39.596,141.209 40.5,140.5 Z"/></g>
<g><path style="opacity:0.992" fill="#fff5cd" d="M 34.5,145.5 C 44.3194,146.494 54.3194,146.827 64.5,146.5C 54.3258,147.823 43.9925,147.823 33.5,146.5C 33.6236,145.893 33.9569,145.56 34.5,145.5 Z"/></g>
<g><path style="opacity:0.992" fill="#fff4c9" d="M 96.5,145.5 C 107.265,146.818 117.931,146.818 128.5,145.5C 129.043,145.56 129.376,145.893 129.5,146.5C 124,146.833 118.5,147.167 113,147.5C 107.124,147.495 101.624,146.829 96.5,145.5 Z"/></g>
</svg>
