<?xml version="1.0" encoding="UTF-8"?> <svg xmlns="http://www.w3.org/2000/svg" width="458" height="292" viewBox="0 0 458 292" fill="none"><path d="M413.167 196.486C413.167 196.486 454.997 199.038 454.997 195.24C454.997 191.442 452.331 172.693 432.778 172.693C413.225 172.693 410.559 189.315 410.559 195.24C410.558 201.165 410.559 219.032 430.942 220.734C451.326 222.436 453.161 213.077 453.161 213.077" stroke="#A92534" stroke-width="5.07868"></path><path d="M385.17 172.768C385.17 172.768 385.17 170.707 385.17 188.267M385.17 220.941C385.17 220.941 385.17 205.827 385.17 188.267M385.17 188.267C385.17 179.437 391.311 176.119 404.215 176.119" stroke="#A92534" stroke-width="5.07868"></path><path d="M342.162 195.596C353.569 195.214 364.854 196.874 364.854 206.813C364.854 216.752 352.086 220.94 342.162 220.94C332.239 220.94 324.525 218.48 323.102 209.722C321.68 200.964 330.756 195.978 342.162 195.596Z" stroke="#A92534" stroke-width="5.07868"></path><path d="M309.823 166.334C288.749 148.639 251.431 157.907 253.187 189.506C254.943 221.106 294.457 227.426 310.262 210.574" stroke="#A92534" stroke-width="5.07868"></path><path d="M105.158 173.957C92.1145 173.957 82.9844 184.805 82.9844 184.805V210.673C82.9844 210.673 95.5927 224.024 109.94 220.269C124.288 216.514 128.092 207.526 127.331 196.07C126.537 184.11 118.201 173.957 105.158 173.957Z" stroke="#A92534" stroke-width="5.07868"></path><path d="M63.9441 165.204C33.4935 147.324 4.28311 162.708 3.04287 187.656C1.69944 214.68 32.1501 229.648 63.9441 215.513" stroke="#A92534" stroke-width="5.07868"></path><path d="M5.54297 187.928H60.1387" stroke="#A92534" stroke-width="5.07868"></path><path d="M82.9844 172.693V237.446" stroke="#A92534" stroke-width="5.07868"></path><path d="M150.283 172.693V220.941" stroke="#A92534" stroke-width="5.07868"></path><path d="M171.865 153.646C171.865 153.646 171.866 191.85 171.865 209.903C171.865 227.955 203.607 226.276 203.607 214.941" stroke="#A92534" stroke-width="5.07868"></path><path d="M364.857 172.693V220.941" stroke="#A92534" stroke-width="5.07868"></path><path d="M325.498 182.849C325.498 182.849 327.33 173.184 342.772 172.709C358.214 172.234 364.858 182.851 364.858 182.851" stroke="#A92534" stroke-width="5.07868"></path><mask id="path-13-outside-1_85_355" maskUnits="userSpaceOnUse" x="26.125" y="265.646" width="396" height="26" fill="black"><rect fill="white" x="26.125" y="265.646" width="396" height="26"></rect><path d="M27.125 286.043V271.374H32.8248C33.9605 271.374 34.8972 271.55 35.6349 271.904C36.3726 272.252 36.9218 272.723 37.2827 273.315C37.6436 273.902 37.824 274.554 37.824 275.27C37.824 275.901 37.6993 276.421 37.4499 276.832C37.2058 277.242 36.882 277.567 36.4787 277.806C36.0807 278.045 35.6481 278.221 35.1811 278.336V278.479C35.68 278.508 36.1815 278.665 36.6857 278.952C37.1898 279.238 37.6118 279.649 37.9514 280.184C38.2911 280.719 38.4609 281.373 38.4609 282.146C38.4609 282.882 38.2751 283.543 37.9036 284.13C37.5321 284.718 36.9457 285.183 36.1444 285.527C35.343 285.871 34.3001 286.043 33.0158 286.043H27.125ZM29.0992 284.467H33.0158C34.3055 284.467 35.2209 284.243 35.7622 283.794C36.3089 283.34 36.5822 282.791 36.5822 282.146C36.5822 281.65 36.4415 281.191 36.1603 280.771C35.879 280.346 35.4783 280.007 34.9582 279.754C34.4381 279.496 33.8225 279.367 33.1114 279.367H29.0992V284.467ZM29.0992 277.82H32.7611C33.3555 277.82 33.8915 277.715 34.3691 277.505C34.8521 277.295 35.2342 276.999 35.5155 276.617C35.802 276.235 35.9453 275.786 35.9453 275.27C35.9453 274.626 35.6959 274.079 35.197 273.63C34.6982 273.176 33.9074 272.95 32.8248 272.95H29.0992V277.82Z"></path><path d="M62.1858 278.708C62.1858 280.255 61.8754 281.592 61.2544 282.719C60.6335 283.846 59.7817 284.715 58.6991 285.327C57.6165 285.938 56.3799 286.243 54.9895 286.243C53.599 286.243 52.3625 285.938 51.2798 285.327C50.1972 284.715 49.3454 283.846 48.7245 282.719C48.1035 281.592 47.7931 280.255 47.7931 278.708C47.7931 277.161 48.1035 275.824 48.7245 274.697C49.3454 273.57 50.1972 272.701 51.2798 272.09C52.3625 271.479 53.599 271.173 54.9895 271.173C56.3799 271.173 57.6165 271.479 58.6991 272.09C59.7817 272.701 60.6335 273.57 61.2544 274.697C61.8754 275.824 62.1858 277.161 62.1858 278.708ZM60.2753 278.708C60.2753 277.438 60.0391 276.366 59.5668 275.492C59.0998 274.618 58.4656 273.957 57.6642 273.508C56.8682 273.059 55.9766 272.835 54.9895 272.835C54.0023 272.835 53.1081 273.059 52.3067 273.508C51.5107 273.957 50.8765 274.618 50.4042 275.492C49.9371 276.366 49.7036 277.438 49.7036 278.708C49.7036 279.979 49.9371 281.051 50.4042 281.924C50.8765 282.798 51.5107 283.46 52.3067 283.908C53.1081 284.357 54.0023 284.582 54.9895 284.582C55.9766 284.582 56.8682 284.357 57.6642 283.908C58.4656 283.46 59.0998 282.798 59.5668 281.924C60.0391 281.051 60.2753 279.979 60.2753 278.708Z"></path><path d="M77.2616 286.043H72.2305V271.374H77.4845C79.066 271.374 80.4193 271.667 81.5444 272.255C82.6695 272.837 83.5319 273.675 84.1316 274.769C84.7313 275.858 85.0311 277.161 85.0311 278.68C85.0311 280.208 84.7286 281.523 84.1236 282.626C83.5186 283.725 82.6377 284.57 81.4807 285.162C80.3238 285.749 78.9174 286.043 77.2616 286.043ZM74.2047 284.467H77.1342C78.4822 284.467 79.5994 284.233 80.4856 283.765C81.3719 283.297 82.0326 282.631 82.4678 281.767C82.903 280.902 83.1206 279.873 83.1206 278.68C83.1206 277.495 82.9057 276.476 82.4758 275.621C82.0459 274.762 81.4038 274.103 80.5493 273.644C79.6949 273.181 78.6308 272.95 77.3571 272.95H74.2047V284.467Z"></path><path d="M92.9006 271.374H95.1614L99.683 278.221H99.8741L104.396 271.374H106.656L100.766 279.998V286.043H98.7914V279.998L92.9006 271.374Z"></path><path d="M131.449 266.646V290.77H129.856V266.646H131.449Z"></path><path d="M156.054 286.043V271.374H158.028V284.467H165.606V286.043H156.054Z"></path><path d="M177.086 286.043H175.016L181.002 271.374H183.04L189.027 286.043H186.957L182.085 273.695H181.958L177.086 286.043ZM177.85 280.313H186.193V281.889H177.85V280.313Z"></path><path d="M207.207 275.041C207.112 274.315 206.724 273.752 206.045 273.351C205.366 272.95 204.532 272.749 203.545 272.749C202.823 272.749 202.192 272.854 201.651 273.064C201.115 273.274 200.695 273.563 200.393 273.931C200.096 274.299 199.947 274.716 199.947 275.184C199.947 275.576 200.051 275.913 200.258 276.194C200.47 276.471 200.74 276.703 201.069 276.889C201.399 277.07 201.743 277.221 202.104 277.34C202.465 277.455 202.797 277.548 203.099 277.62L204.755 278.021C205.18 278.121 205.652 278.259 206.172 278.436C206.698 278.613 207.199 278.854 207.677 279.16C208.16 279.46 208.558 279.847 208.871 280.32C209.184 280.793 209.341 281.373 209.341 282.06C209.341 282.853 209.11 283.569 208.648 284.209C208.192 284.849 207.523 285.358 206.642 285.735C205.766 286.112 204.702 286.301 203.45 286.301C202.282 286.301 201.271 286.131 200.417 285.792C199.568 285.453 198.899 284.98 198.411 284.374C197.928 283.768 197.654 283.063 197.591 282.261H199.629C199.682 282.815 199.889 283.273 200.25 283.636C200.616 283.994 201.077 284.262 201.635 284.438C202.197 284.61 202.802 284.696 203.45 284.696C204.203 284.696 204.88 284.586 205.48 284.367C206.079 284.142 206.554 283.832 206.905 283.436C207.255 283.035 207.43 282.567 207.43 282.032C207.43 281.545 207.279 281.148 206.976 280.843C206.674 280.537 206.276 280.289 205.782 280.098C205.289 279.907 204.755 279.74 204.182 279.597L202.176 279.081C200.902 278.751 199.894 278.281 199.151 277.67C198.408 277.059 198.037 276.259 198.037 275.27C198.037 274.449 198.283 273.733 198.777 273.121C199.276 272.506 199.944 272.028 200.783 271.689C201.627 271.345 202.569 271.173 203.609 271.173C204.66 271.173 205.594 271.343 206.411 271.682C207.228 272.016 207.876 272.474 208.353 273.057C208.836 273.64 209.091 274.301 209.118 275.041H207.207Z"></path><path d="M219.312 286.043V271.374H229.151V272.95H221.286V277.906H228.641V279.482H221.286V284.467H229.278V286.043H219.312Z"></path><path d="M239.434 286.043V271.374H244.943C246.217 271.374 247.262 271.57 248.08 271.961C248.897 272.348 249.502 272.88 249.895 273.558C250.287 274.236 250.484 275.008 250.484 275.872C250.484 276.736 250.287 277.503 249.895 278.171C249.502 278.84 248.9 279.365 248.088 279.747C247.276 280.124 246.238 280.313 244.975 280.313H240.517V278.708H244.911C245.782 278.708 246.482 278.594 247.013 278.365C247.549 278.135 247.936 277.811 248.175 277.39C248.419 276.965 248.541 276.459 248.541 275.872C248.541 275.285 248.419 274.771 248.175 274.332C247.931 273.893 247.541 273.554 247.005 273.315C246.469 273.071 245.76 272.95 244.879 272.95H241.409V286.043H239.434ZM247.108 279.453L251.121 286.043H248.828L244.879 279.453H247.108Z"></path><path d="M276.012 266.646V290.77H274.42V266.646H276.012Z"></path><path d="M300.617 286.043V271.374H306.317C307.453 271.374 308.389 271.55 309.127 271.904C309.865 272.252 310.414 272.723 310.775 273.315C311.136 273.902 311.316 274.554 311.316 275.27C311.316 275.901 311.191 276.421 310.942 276.832C310.698 277.242 310.374 277.567 309.971 277.806C309.573 278.045 309.14 278.221 308.673 278.336V278.479C309.172 278.508 309.674 278.665 310.178 278.952C310.682 279.238 311.104 279.649 311.443 280.184C311.783 280.719 311.953 281.373 311.953 282.146C311.953 282.882 311.767 283.543 311.396 284.13C311.024 284.718 310.438 285.183 309.636 285.527C308.835 285.871 307.792 286.043 306.508 286.043H300.617ZM302.591 284.467H306.508C307.798 284.467 308.713 284.243 309.254 283.794C309.801 283.34 310.074 282.791 310.074 282.146C310.074 281.65 309.934 281.191 309.652 280.771C309.371 280.346 308.97 280.007 308.45 279.754C307.93 279.496 307.315 279.367 306.603 279.367H302.591V284.467ZM302.591 277.82H306.253C306.848 277.82 307.384 277.715 307.861 277.505C308.344 277.295 308.726 276.999 309.008 276.617C309.294 276.235 309.437 275.786 309.437 275.27C309.437 274.626 309.188 274.079 308.689 273.63C308.19 273.176 307.4 272.95 306.317 272.95H302.591V277.82Z"></path><path d="M321.922 286.043V271.374H331.761V272.95H323.896V277.906H331.252V279.482H323.896V284.467H331.889V286.043H321.922Z"></path><path d="M342.713 286.043H340.644L346.63 271.374H348.668L354.654 286.043H352.585L347.713 273.695H347.585L342.713 286.043ZM343.478 280.313H351.82V281.889H343.478V280.313Z"></path><path d="M374.618 271.374H376.592V281.086C376.592 282.089 376.329 282.984 375.804 283.772C375.284 284.555 374.549 285.174 373.599 285.627C372.649 286.076 371.535 286.301 370.256 286.301C368.977 286.301 367.862 286.076 366.912 285.627C365.962 285.174 365.224 284.555 364.699 283.772C364.179 282.984 363.919 282.089 363.919 281.086V271.374H365.893V280.943C365.893 281.659 366.068 282.297 366.419 282.856C366.769 283.409 367.268 283.846 367.915 284.166C368.568 284.481 369.348 284.639 370.256 284.639C371.163 284.639 371.943 284.481 372.596 284.166C373.249 283.846 373.748 283.409 374.093 282.856C374.443 282.297 374.618 281.659 374.618 280.943V271.374Z"></path><path d="M386.368 272.95V271.374H398.596V272.95H393.469V286.043H391.495V272.95H386.368Z"></path><path d="M406.967 271.374H409.227L413.749 278.221H413.94L418.462 271.374H420.723L414.832 279.998V286.043H412.857V279.998L406.967 271.374Z"></path></mask><path d="M27.125 286.043V271.374H32.8248C33.9605 271.374 34.8972 271.55 35.6349 271.904C36.3726 272.252 36.9218 272.723 37.2827 273.315C37.6436 273.902 37.824 274.554 37.824 275.27C37.824 275.901 37.6993 276.421 37.4499 276.832C37.2058 277.242 36.882 277.567 36.4787 277.806C36.0807 278.045 35.6481 278.221 35.1811 278.336V278.479C35.68 278.508 36.1815 278.665 36.6857 278.952C37.1898 279.238 37.6118 279.649 37.9514 280.184C38.2911 280.719 38.4609 281.373 38.4609 282.146C38.4609 282.882 38.2751 283.543 37.9036 284.13C37.5321 284.718 36.9457 285.183 36.1444 285.527C35.343 285.871 34.3001 286.043 33.0158 286.043H27.125ZM29.0992 284.467H33.0158C34.3055 284.467 35.2209 284.243 35.7622 283.794C36.3089 283.34 36.5822 282.791 36.5822 282.146C36.5822 281.65 36.4415 281.191 36.1603 280.771C35.879 280.346 35.4783 280.007 34.9582 279.754C34.4381 279.496 33.8225 279.367 33.1114 279.367H29.0992V284.467ZM29.0992 277.82H32.7611C33.3555 277.82 33.8915 277.715 34.3691 277.505C34.8521 277.295 35.2342 276.999 35.5155 276.617C35.802 276.235 35.9453 275.786 35.9453 275.27C35.9453 274.626 35.6959 274.079 35.197 273.63C34.6982 273.176 33.9074 272.95 32.8248 272.95H29.0992V277.82Z" fill="#A92534"></path><path d="M62.1858 278.708C62.1858 280.255 61.8754 281.592 61.2544 282.719C60.6335 283.846 59.7817 284.715 58.6991 285.327C57.6165 285.938 56.3799 286.243 54.9895 286.243C53.599 286.243 52.3625 285.938 51.2798 285.327C50.1972 284.715 49.3454 283.846 48.7245 282.719C48.1035 281.592 47.7931 280.255 47.7931 278.708C47.7931 277.161 48.1035 275.824 48.7245 274.697C49.3454 273.57 50.1972 272.701 51.2798 272.09C52.3625 271.479 53.599 271.173 54.9895 271.173C56.3799 271.173 57.6165 271.479 58.6991 272.09C59.7817 272.701 60.6335 273.57 61.2544 274.697C61.8754 275.824 62.1858 277.161 62.1858 278.708ZM60.2753 278.708C60.2753 277.438 60.0391 276.366 59.5668 275.492C59.0998 274.618 58.4656 273.957 57.6642 273.508C56.8682 273.059 55.9766 272.835 54.9895 272.835C54.0023 272.835 53.1081 273.059 52.3067 273.508C51.5107 273.957 50.8765 274.618 50.4042 275.492C49.9371 276.366 49.7036 277.438 49.7036 278.708C49.7036 279.979 49.9371 281.051 50.4042 281.924C50.8765 282.798 51.5107 283.46 52.3067 283.908C53.1081 284.357 54.0023 284.582 54.9895 284.582C55.9766 284.582 56.8682 284.357 57.6642 283.908C58.4656 283.46 59.0998 282.798 59.5668 281.924C60.0391 281.051 60.2753 279.979 60.2753 278.708Z" fill="#A92534"></path><path d="M77.2616 286.043H72.2305V271.374H77.4845C79.066 271.374 80.4193 271.667 81.5444 272.255C82.6695 272.837 83.5319 273.675 84.1316 274.769C84.7313 275.858 85.0311 277.161 85.0311 278.68C85.0311 280.208 84.7286 281.523 84.1236 282.626C83.5186 283.725 82.6377 284.57 81.4807 285.162C80.3238 285.749 78.9174 286.043 77.2616 286.043ZM74.2047 284.467H77.1342C78.4822 284.467 79.5994 284.233 80.4856 283.765C81.3719 283.297 82.0326 282.631 82.4678 281.767C82.903 280.902 83.1206 279.873 83.1206 278.68C83.1206 277.495 82.9057 276.476 82.4758 275.621C82.0459 274.762 81.4038 274.103 80.5493 273.644C79.6949 273.181 78.6308 272.95 77.3571 272.95H74.2047V284.467Z" fill="#A92534"></path><path d="M92.9006 271.374H95.1614L99.683 278.221H99.8741L104.396 271.374H106.656L100.766 279.998V286.043H98.7914V279.998L92.9006 271.374Z" fill="#A92534"></path><path d="M131.449 266.646V290.77H129.856V266.646H131.449Z" fill="#A92534"></path><path d="M156.054 286.043V271.374H158.028V284.467H165.606V286.043H156.054Z" fill="#A92534"></path><path d="M177.086 286.043H175.016L181.002 271.374H183.04L189.027 286.043H186.957L182.085 273.695H181.958L177.086 286.043ZM177.85 280.313H186.193V281.889H177.85V280.313Z" fill="#A92534"></path><path d="M207.207 275.041C207.112 274.315 206.724 273.752 206.045 273.351C205.366 272.95 204.532 272.749 203.545 272.749C202.823 272.749 202.192 272.854 201.651 273.064C201.115 273.274 200.695 273.563 200.393 273.931C200.096 274.299 199.947 274.716 199.947 275.184C199.947 275.576 200.051 275.913 200.258 276.194C200.47 276.471 200.74 276.703 201.069 276.889C201.399 277.07 201.743 277.221 202.104 277.34C202.465 277.455 202.797 277.548 203.099 277.62L204.755 278.021C205.18 278.121 205.652 278.259 206.172 278.436C206.698 278.613 207.199 278.854 207.677 279.16C208.16 279.46 208.558 279.847 208.871 280.32C209.184 280.793 209.341 281.373 209.341 282.06C209.341 282.853 209.11 283.569 208.648 284.209C208.192 284.849 207.523 285.358 206.642 285.735C205.766 286.112 204.702 286.301 203.45 286.301C202.282 286.301 201.271 286.131 200.417 285.792C199.568 285.453 198.899 284.98 198.411 284.374C197.928 283.768 197.654 283.063 197.591 282.261H199.629C199.682 282.815 199.889 283.273 200.25 283.636C200.616 283.994 201.077 284.262 201.635 284.438C202.197 284.61 202.802 284.696 203.45 284.696C204.203 284.696 204.88 284.586 205.48 284.367C206.079 284.142 206.554 283.832 206.905 283.436C207.255 283.035 207.43 282.567 207.43 282.032C207.43 281.545 207.279 281.148 206.976 280.843C206.674 280.537 206.276 280.289 205.782 280.098C205.289 279.907 204.755 279.74 204.182 279.597L202.176 279.081C200.902 278.751 199.894 278.281 199.151 277.67C198.408 277.059 198.037 276.259 198.037 275.27C198.037 274.449 198.283 273.733 198.777 273.121C199.276 272.506 199.944 272.028 200.783 271.689C201.627 271.345 202.569 271.173 203.609 271.173C204.66 271.173 205.594 271.343 206.411 271.682C207.228 272.016 207.876 272.474 208.353 273.057C208.836 273.64 209.091 274.301 209.118 275.041H207.207Z" fill="#A92534"></path><path d="M219.312 286.043V271.374H229.151V272.95H221.286V277.906H228.641V279.482H221.286V284.467H229.278V286.043H219.312Z" fill="#A92534"></path><path d="M239.434 286.043V271.374H244.943C246.217 271.374 247.262 271.57 248.08 271.961C248.897 272.348 249.502 272.88 249.895 273.558C250.287 274.236 250.484 275.008 250.484 275.872C250.484 276.736 250.287 277.503 249.895 278.171C249.502 278.84 248.9 279.365 248.088 279.747C247.276 280.124 246.238 280.313 244.975 280.313H240.517V278.708H244.911C245.782 278.708 246.482 278.594 247.013 278.365C247.549 278.135 247.936 277.811 248.175 277.39C248.419 276.965 248.541 276.459 248.541 275.872C248.541 275.285 248.419 274.771 248.175 274.332C247.931 273.893 247.541 273.554 247.005 273.315C246.469 273.071 245.76 272.95 244.879 272.95H241.409V286.043H239.434ZM247.108 279.453L251.121 286.043H248.828L244.879 279.453H247.108Z" fill="#A92534"></path><path d="M276.012 266.646V290.77H274.42V266.646H276.012Z" fill="#A92534"></path><path d="M300.617 286.043V271.374H306.317C307.453 271.374 308.389 271.55 309.127 271.904C309.865 272.252 310.414 272.723 310.775 273.315C311.136 273.902 311.316 274.554 311.316 275.27C311.316 275.901 311.191 276.421 310.942 276.832C310.698 277.242 310.374 277.567 309.971 277.806C309.573 278.045 309.14 278.221 308.673 278.336V278.479C309.172 278.508 309.674 278.665 310.178 278.952C310.682 279.238 311.104 279.649 311.443 280.184C311.783 280.719 311.953 281.373 311.953 282.146C311.953 282.882 311.767 283.543 311.396 284.13C311.024 284.718 310.438 285.183 309.636 285.527C308.835 285.871 307.792 286.043 306.508 286.043H300.617ZM302.591 284.467H306.508C307.798 284.467 308.713 284.243 309.254 283.794C309.801 283.34 310.074 282.791 310.074 282.146C310.074 281.65 309.934 281.191 309.652 280.771C309.371 280.346 308.97 280.007 308.45 279.754C307.93 279.496 307.315 279.367 306.603 279.367H302.591V284.467ZM302.591 277.82H306.253C306.848 277.82 307.384 277.715 307.861 277.505C308.344 277.295 308.726 276.999 309.008 276.617C309.294 276.235 309.437 275.786 309.437 275.27C309.437 274.626 309.188 274.079 308.689 273.63C308.19 273.176 307.4 272.95 306.317 272.95H302.591V277.82Z" fill="#A92534"></path><path d="M321.922 286.043V271.374H331.761V272.95H323.896V277.906H331.252V279.482H323.896V284.467H331.889V286.043H321.922Z" fill="#A92534"></path><path d="M342.713 286.043H340.644L346.63 271.374H348.668L354.654 286.043H352.585L347.713 273.695H347.585L342.713 286.043ZM343.478 280.313H351.82V281.889H343.478V280.313Z" fill="#A92534"></path><path d="M374.618 271.374H376.592V281.086C376.592 282.089 376.329 282.984 375.804 283.772C375.284 284.555 374.549 285.174 373.599 285.627C372.649 286.076 371.535 286.301 370.256 286.301C368.977 286.301 367.862 286.076 366.912 285.627C365.962 285.174 365.224 284.555 364.699 283.772C364.179 282.984 363.919 282.089 363.919 281.086V271.374H365.893V280.943C365.893 281.659 366.068 282.297 366.419 282.856C366.769 283.409 367.268 283.846 367.915 284.166C368.568 284.481 369.348 284.639 370.256 284.639C371.163 284.639 371.943 284.481 372.596 284.166C373.249 283.846 373.748 283.409 374.093 282.856C374.443 282.297 374.618 281.659 374.618 280.943V271.374Z" fill="#A92534"></path><path d="M386.368 272.95V271.374H398.596V272.95H393.469V286.043H391.495V272.95H386.368Z" fill="#A92534"></path><path d="M406.967 271.374H409.227L413.749 278.221H413.94L418.462 271.374H420.723L414.832 279.998V286.043H412.857V279.998L406.967 271.374Z" fill="#A92534"></path><path d="M27.125 286.043V271.374H32.8248C33.9605 271.374 34.8972 271.55 35.6349 271.904C36.3726 272.252 36.9218 272.723 37.2827 273.315C37.6436 273.902 37.824 274.554 37.824 275.27C37.824 275.901 37.6993 276.421 37.4499 276.832C37.2058 277.242 36.882 277.567 36.4787 277.806C36.0807 278.045 35.6481 278.221 35.1811 278.336V278.479C35.68 278.508 36.1815 278.665 36.6857 278.952C37.1898 279.238 37.6118 279.649 37.9514 280.184C38.2911 280.719 38.4609 281.373 38.4609 282.146C38.4609 282.882 38.2751 283.543 37.9036 284.13C37.5321 284.718 36.9457 285.183 36.1444 285.527C35.343 285.871 34.3001 286.043 33.0158 286.043H27.125ZM29.0992 284.467H33.0158C34.3055 284.467 35.2209 284.243 35.7622 283.794C36.3089 283.34 36.5822 282.791 36.5822 282.146C36.5822 281.65 36.4415 281.191 36.1603 280.771C35.879 280.346 35.4783 280.007 34.9582 279.754C34.4381 279.496 33.8225 279.367 33.1114 279.367H29.0992V284.467ZM29.0992 277.82H32.7611C33.3555 277.82 33.8915 277.715 34.3691 277.505C34.8521 277.295 35.2342 276.999 35.5155 276.617C35.802 276.235 35.9453 275.786 35.9453 275.27C35.9453 274.626 35.6959 274.079 35.197 273.63C34.6982 273.176 33.9074 272.95 32.8248 272.95H29.0992V277.82Z" stroke="#A92534" stroke-width="1.01574" mask="url(#path-13-outside-1_85_355)"></path><path d="M62.1858 278.708C62.1858 280.255 61.8754 281.592 61.2544 282.719C60.6335 283.846 59.7817 284.715 58.6991 285.327C57.6165 285.938 56.3799 286.243 54.9895 286.243C53.599 286.243 52.3625 285.938 51.2798 285.327C50.1972 284.715 49.3454 283.846 48.7245 282.719C48.1035 281.592 47.7931 280.255 47.7931 278.708C47.7931 277.161 48.1035 275.824 48.7245 274.697C49.3454 273.57 50.1972 272.701 51.2798 272.09C52.3625 271.479 53.599 271.173 54.9895 271.173C56.3799 271.173 57.6165 271.479 58.6991 272.09C59.7817 272.701 60.6335 273.57 61.2544 274.697C61.8754 275.824 62.1858 277.161 62.1858 278.708ZM60.2753 278.708C60.2753 277.438 60.0391 276.366 59.5668 275.492C59.0998 274.618 58.4656 273.957 57.6642 273.508C56.8682 273.059 55.9766 272.835 54.9895 272.835C54.0023 272.835 53.1081 273.059 52.3067 273.508C51.5107 273.957 50.8765 274.618 50.4042 275.492C49.9371 276.366 49.7036 277.438 49.7036 278.708C49.7036 279.979 49.9371 281.051 50.4042 281.924C50.8765 282.798 51.5107 283.46 52.3067 283.908C53.1081 284.357 54.0023 284.582 54.9895 284.582C55.9766 284.582 56.8682 284.357 57.6642 283.908C58.4656 283.46 59.0998 282.798 59.5668 281.924C60.0391 281.051 60.2753 279.979 60.2753 278.708Z" stroke="#A92534" stroke-width="1.01574" mask="url(#path-13-outside-1_85_355)"></path><path d="M77.2616 286.043H72.2305V271.374H77.4845C79.066 271.374 80.4193 271.667 81.5444 272.255C82.6695 272.837 83.5319 273.675 84.1316 274.769C84.7313 275.858 85.0311 277.161 85.0311 278.68C85.0311 280.208 84.7286 281.523 84.1236 282.626C83.5186 283.725 82.6377 284.57 81.4807 285.162C80.3238 285.749 78.9174 286.043 77.2616 286.043ZM74.2047 284.467H77.1342C78.4822 284.467 79.5994 284.233 80.4856 283.765C81.3719 283.297 82.0326 282.631 82.4678 281.767C82.903 280.902 83.1206 279.873 83.1206 278.68C83.1206 277.495 82.9057 276.476 82.4758 275.621C82.0459 274.762 81.4038 274.103 80.5493 273.644C79.6949 273.181 78.6308 272.95 77.3571 272.95H74.2047V284.467Z" stroke="#A92534" stroke-width="1.01574" mask="url(#path-13-outside-1_85_355)"></path><path d="M92.9006 271.374H95.1614L99.683 278.221H99.8741L104.396 271.374H106.656L100.766 279.998V286.043H98.7914V279.998L92.9006 271.374Z" stroke="#A92534" stroke-width="1.01574" mask="url(#path-13-outside-1_85_355)"></path><path d="M131.449 266.646V290.77H129.856V266.646H131.449Z" stroke="#A92534" stroke-width="1.01574" mask="url(#path-13-outside-1_85_355)"></path><path d="M156.054 286.043V271.374H158.028V284.467H165.606V286.043H156.054Z" stroke="#A92534" stroke-width="1.01574" mask="url(#path-13-outside-1_85_355)"></path><path d="M177.086 286.043H175.016L181.002 271.374H183.04L189.027 286.043H186.957L182.085 273.695H181.958L177.086 286.043ZM177.85 280.313H186.193V281.889H177.85V280.313Z" stroke="#A92534" stroke-width="1.01574" mask="url(#path-13-outside-1_85_355)"></path><path d="M207.207 275.041C207.112 274.315 206.724 273.752 206.045 273.351C205.366 272.95 204.532 272.749 203.545 272.749C202.823 272.749 202.192 272.854 201.651 273.064C201.115 273.274 200.695 273.563 200.393 273.931C200.096 274.299 199.947 274.716 199.947 275.184C199.947 275.576 200.051 275.913 200.258 276.194C200.47 276.471 200.74 276.703 201.069 276.889C201.399 277.07 201.743 277.221 202.104 277.34C202.465 277.455 202.797 277.548 203.099 277.62L204.755 278.021C205.18 278.121 205.652 278.259 206.172 278.436C206.698 278.613 207.199 278.854 207.677 279.16C208.16 279.46 208.558 279.847 208.871 280.32C209.184 280.793 209.341 281.373 209.341 282.06C209.341 282.853 209.11 283.569 208.648 284.209C208.192 284.849 207.523 285.358 206.642 285.735C205.766 286.112 204.702 286.301 203.45 286.301C202.282 286.301 201.271 286.131 200.417 285.792C199.568 285.453 198.899 284.98 198.411 284.374C197.928 283.768 197.654 283.063 197.591 282.261H199.629C199.682 282.815 199.889 283.273 200.25 283.636C200.616 283.994 201.077 284.262 201.635 284.438C202.197 284.61 202.802 284.696 203.45 284.696C204.203 284.696 204.88 284.586 205.48 284.367C206.079 284.142 206.554 283.832 206.905 283.436C207.255 283.035 207.43 282.567 207.43 282.032C207.43 281.545 207.279 281.148 206.976 280.843C206.674 280.537 206.276 280.289 205.782 280.098C205.289 279.907 204.755 279.74 204.182 279.597L202.176 279.081C200.902 278.751 199.894 278.281 199.151 277.67C198.408 277.059 198.037 276.259 198.037 275.27C198.037 274.449 198.283 273.733 198.777 273.121C199.276 272.506 199.944 272.028 200.783 271.689C201.627 271.345 202.569 271.173 203.609 271.173C204.66 271.173 205.594 271.343 206.411 271.682C207.228 272.016 207.876 272.474 208.353 273.057C208.836 273.64 209.091 274.301 209.118 275.041H207.207Z" stroke="#A92534" stroke-width="1.01574" mask="url(#path-13-outside-1_85_355)"></path><path d="M219.312 286.043V271.374H229.151V272.95H221.286V277.906H228.641V279.482H221.286V284.467H229.278V286.043H219.312Z" stroke="#A92534" stroke-width="1.01574" mask="url(#path-13-outside-1_85_355)"></path><path d="M239.434 286.043V271.374H244.943C246.217 271.374 247.262 271.57 248.08 271.961C248.897 272.348 249.502 272.88 249.895 273.558C250.287 274.236 250.484 275.008 250.484 275.872C250.484 276.736 250.287 277.503 249.895 278.171C249.502 278.84 248.9 279.365 248.088 279.747C247.276 280.124 246.238 280.313 244.975 280.313H240.517V278.708H244.911C245.782 278.708 246.482 278.594 247.013 278.365C247.549 278.135 247.936 277.811 248.175 277.39C248.419 276.965 248.541 276.459 248.541 275.872C248.541 275.285 248.419 274.771 248.175 274.332C247.931 273.893 247.541 273.554 247.005 273.315C246.469 273.071 245.76 272.95 244.879 272.95H241.409V286.043H239.434ZM247.108 279.453L251.121 286.043H248.828L244.879 279.453H247.108Z" stroke="#A92534" stroke-width="1.01574" mask="url(#path-13-outside-1_85_355)"></path><path d="M276.012 266.646V290.77H274.42V266.646H276.012Z" stroke="#A92534" stroke-width="1.01574" mask="url(#path-13-outside-1_85_355)"></path><path d="M300.617 286.043V271.374H306.317C307.453 271.374 308.389 271.55 309.127 271.904C309.865 272.252 310.414 272.723 310.775 273.315C311.136 273.902 311.316 274.554 311.316 275.27C311.316 275.901 311.191 276.421 310.942 276.832C310.698 277.242 310.374 277.567 309.971 277.806C309.573 278.045 309.14 278.221 308.673 278.336V278.479C309.172 278.508 309.674 278.665 310.178 278.952C310.682 279.238 311.104 279.649 311.443 280.184C311.783 280.719 311.953 281.373 311.953 282.146C311.953 282.882 311.767 283.543 311.396 284.13C311.024 284.718 310.438 285.183 309.636 285.527C308.835 285.871 307.792 286.043 306.508 286.043H300.617ZM302.591 284.467H306.508C307.798 284.467 308.713 284.243 309.254 283.794C309.801 283.34 310.074 282.791 310.074 282.146C310.074 281.65 309.934 281.191 309.652 280.771C309.371 280.346 308.97 280.007 308.45 279.754C307.93 279.496 307.315 279.367 306.603 279.367H302.591V284.467ZM302.591 277.82H306.253C306.848 277.82 307.384 277.715 307.861 277.505C308.344 277.295 308.726 276.999 309.008 276.617C309.294 276.235 309.437 275.786 309.437 275.27C309.437 274.626 309.188 274.079 308.689 273.63C308.19 273.176 307.4 272.95 306.317 272.95H302.591V277.82Z" stroke="#A92534" stroke-width="1.01574" mask="url(#path-13-outside-1_85_355)"></path><path d="M321.922 286.043V271.374H331.761V272.95H323.896V277.906H331.252V279.482H323.896V284.467H331.889V286.043H321.922Z" stroke="#A92534" stroke-width="1.01574" mask="url(#path-13-outside-1_85_355)"></path><path d="M342.713 286.043H340.644L346.63 271.374H348.668L354.654 286.043H352.585L347.713 273.695H347.585L342.713 286.043ZM343.478 280.313H351.82V281.889H343.478V280.313Z" stroke="#A92534" stroke-width="1.01574" mask="url(#path-13-outside-1_85_355)"></path><path d="M374.618 271.374H376.592V281.086C376.592 282.089 376.329 282.984 375.804 283.772C375.284 284.555 374.549 285.174 373.599 285.627C372.649 286.076 371.535 286.301 370.256 286.301C368.977 286.301 367.862 286.076 366.912 285.627C365.962 285.174 365.224 284.555 364.699 283.772C364.179 282.984 363.919 282.089 363.919 281.086V271.374H365.893V280.943C365.893 281.659 366.068 282.297 366.419 282.856C366.769 283.409 367.268 283.846 367.915 284.166C368.568 284.481 369.348 284.639 370.256 284.639C371.163 284.639 371.943 284.481 372.596 284.166C373.249 283.846 373.748 283.409 374.093 282.856C374.443 282.297 374.618 281.659 374.618 280.943V271.374Z" stroke="#A92534" stroke-width="1.01574" mask="url(#path-13-outside-1_85_355)"></path><path d="M386.368 272.95V271.374H398.596V272.95H393.469V286.043H391.495V272.95H386.368Z" stroke="#A92534" stroke-width="1.01574" mask="url(#path-13-outside-1_85_355)"></path><path d="M406.967 271.374H409.227L413.749 278.221H413.94L418.462 271.374H420.723L414.832 279.998V286.043H412.857V279.998L406.967 271.374Z" stroke="#A92534" stroke-width="1.01574" mask="url(#path-13-outside-1_85_355)"></path><circle cx="221.38" cy="184.112" r="6.34835" fill="#A92534"></circle><circle cx="150.282" cy="157.452" r="6.34835" fill="#A92534"></circle><path d="M181.088 44.8857C174.195 25.809 190.438 -1.71868 210.918 1.55183C231.398 4.82234 240.517 21.0379 241.638 38.3448C242.759 55.6516 226.286 83.8595 217.596 82.4964C208.906 81.1332 187.981 63.9625 181.088 44.8857Z" fill="url(#paint0_linear_85_355)" stroke="#A92534" stroke-width="2.53934"></path><path d="M249.346 2.75765C236.822 1.10421 230.559 10.1946 230.559 10.1946C230.559 10.1946 238.748 18.3796 242.189 24.6554C245.735 31.1214 247.198 35.2116 248.004 42.4215C248.982 51.1608 248.165 56.4893 244.873 64.7323C240.642 75.3291 229.002 86.3548 229.002 86.3548C229.002 86.3548 244.211 80.5705 251.368 76.4389C258.525 72.3072 263.892 68.5887 270.155 60.7386C276.417 52.8885 280.228 40.9067 277.759 28.0986C275.291 15.2905 264.297 4.73127 249.346 2.75765Z" fill="url(#paint1_linear_85_355)" stroke="#A92534" stroke-width="2.53934"></path><defs><linearGradient id="paint0_linear_85_355" x1="173.749" y1="1.28037" x2="224.703" y2="92.6286" gradientUnits="userSpaceOnUse"><stop stop-color="#A92534"></stop><stop offset="0.205" stop-color="#B83040"></stop><stop offset="0.651127" stop-color="#7D1D28"></stop><stop offset="0.985" stop-color="#A92534"></stop></linearGradient><linearGradient id="paint1_linear_85_355" x1="247.789" y1="4.96139" x2="240.91" y2="79.8519" gradientUnits="userSpaceOnUse"><stop stop-color="#A92534"></stop><stop offset="0.259642" stop-color="#B93040"></stop><stop offset="0.995" stop-color="#5F1720"></stop></linearGradient></defs></svg> 