<?xml version="1.0" encoding="UTF-8"?>
<!DOCTYPE svg PUBLIC "-//W3C//DTD SVG 1.1//EN" "http://www.w3.org/Graphics/SVG/1.1/DTD/svg11.dtd">
<svg xmlns="http://www.w3.org/2000/svg" version="1.1" width="2067px" height="235px" style="shape-rendering:geometricPrecision; text-rendering:geometricPrecision; image-rendering:optimizeQuality; fill-rule:evenodd; clip-rule:evenodd" xmlns:xlink="http://www.w3.org/1999/xlink">
<g><path style="opacity:0.851" fill="#383837" d="M 1000.5,-0.5 C 1002.17,-0.5 1003.83,-0.5 1005.5,-0.5C 1005.5,77.8333 1005.5,156.167 1005.5,234.5C 1003.83,234.5 1002.17,234.5 1000.5,234.5C 1000.5,156.167 1000.5,77.8333 1000.5,-0.5 Z"/></g>
<g><path style="opacity:0.933" fill="#383837" d="M 117.5,37.5 C 133.536,37.1342 149.536,37.6342 165.5,39C 170.083,39.5618 174.417,40.8952 178.5,43C 179.83,45.8773 179.664,48.7107 178,51.5C 160.849,71.6472 144.849,92.6472 130,114.5C 127.079,119.341 124.412,124.341 122,129.5C 120.877,132.956 121.71,135.79 124.5,138C 155.794,139.629 187.127,139.962 218.5,139C 222.916,135.676 225.416,131.176 226,125.5C 228.992,90.1679 214.159,65.6679 181.5,52C 183.101,48.9331 185.268,46.4331 188,44.5C 214.039,54.5386 232.039,72.5386 242,98.5C 246.995,118.213 243.995,136.546 233,153.5C 231.269,155.617 229.102,157.117 226.5,158C 187.5,158.667 148.5,158.667 109.5,158C 88.8015,155.426 81.6348,144.259 88,124.5C 104.266,98.2961 121.766,72.9627 140.5,48.5C 107.381,45.1328 79.8815,56.1328 58,81.5C 41.424,105.465 41.424,129.465 58,153.5C 74.7626,171.797 95.5959,181.964 120.5,184C 145.741,187.062 169.741,183.062 192.5,172C 197.519,169.157 202.186,165.824 206.5,162C 212.859,161.169 219.193,161.336 225.5,162.5C 215.23,173.645 202.897,181.812 188.5,187C 156.791,197.085 124.791,198.085 92.5,190C 70.5437,183.683 52.7104,171.517 39,153.5C 18.6664,112.169 27.8331,79.0021 66.5,54C 82.6105,45.3509 99.6105,39.8509 117.5,37.5 Z"/></g>
<g><path style="opacity:0.898" fill="#383837" d="M 1371.5,72.5 C 1381.46,71.7875 1390.46,74.2875 1398.5,80C 1396.71,83.6124 1394.38,86.7791 1391.5,89.5C 1385.74,85.6428 1379.4,84.1428 1372.5,85C 1362.25,90.5155 1361.92,96.8488 1371.5,104C 1380.41,107.7 1388.58,112.533 1396,118.5C 1403.91,130.332 1403.07,141.499 1393.5,152C 1378.6,159.871 1364.6,158.538 1351.5,148C 1353.71,145.075 1356.05,142.241 1358.5,139.5C 1366.58,145.525 1375.24,146.692 1384.5,143C 1389.22,138.308 1389.72,133.141 1386,127.5C 1378.41,122.621 1370.58,118.121 1362.5,114C 1352.24,105.395 1349.74,94.8945 1355,82.5C 1359.44,77.2047 1364.94,73.8714 1371.5,72.5 Z"/></g>
<g><path style="opacity:0.902" fill="#383837" d="M 2006.5,72.5 C 2012.97,72.2804 2019.3,73.1137 2025.5,75C 2028.53,76.1776 2031.2,77.8442 2033.5,80C 2031.87,83.4397 2029.87,86.6064 2027.5,89.5C 2019.89,84.2146 2011.89,83.3812 2003.5,87C 1999.68,91.2946 1999.51,95.7946 2003,100.5C 2010.75,105.963 2018.92,110.797 2027.5,115C 2036.95,123.84 2039.12,134.34 2034,146.5C 2023.02,157.83 2010.18,160.33 1995.5,154C 1992.4,152.719 1989.73,150.886 1987.5,148.5C 1989.48,145.19 1991.82,142.19 1994.5,139.5C 2002.58,145.525 2011.24,146.692 2020.5,143C 2024.51,139.095 2025.35,134.595 2023,129.5C 2020.8,126.96 2018.3,124.793 2015.5,123C 2008.01,119.759 2001.01,115.759 1994.5,111C 1986.39,101.464 1985.55,91.2978 1992,80.5C 1996.12,76.3609 2000.95,73.6942 2006.5,72.5 Z"/></g>
<g><path style="opacity:0.911" fill="#383837" d="M 1100.5,74.5 C 1104.5,74.5 1108.5,74.5 1112.5,74.5C 1112.33,84.8387 1112.5,95.172 1113,105.5C 1122.5,95.3333 1132,85.1667 1141.5,75C 1146.83,74.3333 1152.17,74.3333 1157.5,75C 1146.32,86.6829 1135.32,98.5162 1124.5,110.5C 1137.62,125.24 1150.62,140.073 1163.5,155C 1158.17,155.667 1152.83,155.667 1147.5,155C 1136.99,142.992 1126.32,131.158 1115.5,119.5C 1114.52,119.977 1113.69,120.643 1113,121.5C 1112.5,132.828 1112.33,144.162 1112.5,155.5C 1108.5,155.5 1104.5,155.5 1100.5,155.5C 1100.5,128.5 1100.5,101.5 1100.5,74.5 Z"/></g>
<g><path style="opacity:0.943" fill="#383837" d="M 1176.5,74.5 C 1191.83,74.5 1207.17,74.5 1222.5,74.5C 1222.5,78.1667 1222.5,81.8333 1222.5,85.5C 1211.17,85.5 1199.83,85.5 1188.5,85.5C 1188.5,93.8333 1188.5,102.167 1188.5,110.5C 1199.5,110.5 1210.5,110.5 1221.5,110.5C 1221.5,114.167 1221.5,117.833 1221.5,121.5C 1210.5,121.5 1199.5,121.5 1188.5,121.5C 1188.5,129.167 1188.5,136.833 1188.5,144.5C 1200.5,144.5 1212.5,144.5 1224.5,144.5C 1224.5,148.167 1224.5,151.833 1224.5,155.5C 1208.5,155.5 1192.5,155.5 1176.5,155.5C 1176.5,128.5 1176.5,101.5 1176.5,74.5 Z"/></g>
<g><path style="opacity:0.914" fill="#383837" d="M 1241.5,74.5 C 1245.18,74.3347 1248.85,74.5014 1252.5,75C 1266.46,93.7445 1280.29,112.578 1294,131.5C 1294.5,112.503 1294.67,93.5029 1294.5,74.5C 1298.5,74.5 1302.5,74.5 1306.5,74.5C 1306.5,101.5 1306.5,128.5 1306.5,155.5C 1302.56,155.793 1298.73,155.46 1295,154.5C 1281.33,135.5 1267.67,116.5 1254,97.5C 1253.5,116.83 1253.33,136.164 1253.5,155.5C 1249.5,155.5 1245.5,155.5 1241.5,155.5C 1241.5,128.5 1241.5,101.5 1241.5,74.5 Z"/></g>
<g><path style="opacity:0.919" fill="#383837" d="M 1417.5,74.5 C 1421.5,74.5 1425.5,74.5 1429.5,74.5C 1429.5,86.1667 1429.5,97.8333 1429.5,109.5C 1441.83,109.5 1454.17,109.5 1466.5,109.5C 1466.5,97.8333 1466.5,86.1667 1466.5,74.5C 1470.5,74.5 1474.5,74.5 1478.5,74.5C 1478.5,101.5 1478.5,128.5 1478.5,155.5C 1474.5,155.5 1470.5,155.5 1466.5,155.5C 1466.5,144.167 1466.5,132.833 1466.5,121.5C 1454.17,121.5 1441.83,121.5 1429.5,121.5C 1429.5,132.833 1429.5,144.167 1429.5,155.5C 1425.5,155.5 1421.5,155.5 1417.5,155.5C 1417.5,128.5 1417.5,101.5 1417.5,74.5 Z"/></g>
<g><path style="opacity:0.915" fill="#383837" d="M 1523.5,74.5 C 1526.78,74.2161 1529.94,74.5495 1533,75.5C 1543.07,101.873 1553.24,128.206 1563.5,154.5C 1558.88,155.493 1554.21,155.827 1549.5,155.5C 1547.1,146.973 1544.1,138.64 1540.5,130.5C 1532.17,129.167 1523.83,129.167 1515.5,130.5C 1512.5,138.5 1509.5,146.5 1506.5,154.5C 1502.17,155.833 1497.83,155.833 1493.5,154.5C 1503.71,127.875 1513.71,101.209 1523.5,74.5 Z M 1527.5,96.5 C 1530.77,103.461 1533.77,110.628 1536.5,118C 1531.18,118.499 1525.84,118.666 1520.5,118.5C 1522.83,111.167 1525.17,103.833 1527.5,96.5 Z"/></g>
<g><path style="opacity:0.91" fill="#383837" d="M 1565.5,74.5 C 1569.5,74.5 1573.5,74.5 1577.5,74.5C 1581.85,91.9128 1586.52,109.246 1591.5,126.5C 1597.1,109.542 1602.6,92.5419 1608,75.5C 1611,74.1667 1614,74.1667 1617,75.5C 1622.33,92.8333 1627.67,110.167 1633,127.5C 1638.15,109.895 1642.98,92.2283 1647.5,74.5C 1651.5,74.5 1655.5,74.5 1659.5,74.5C 1652.78,101.32 1645.45,127.987 1637.5,154.5C 1636,154.833 1634.5,155.167 1633,155.5C 1631.02,155.371 1629.35,154.704 1628,153.5C 1622.87,135.773 1617.54,118.107 1612,100.5C 1606.19,118.762 1600.69,137.095 1595.5,155.5C 1591.97,156.011 1588.8,155.344 1586,153.5C 1579.01,127.191 1572.17,100.857 1565.5,74.5 Z"/></g>
<g><path style="opacity:0.927" fill="#383837" d="M 1704.5,74.5 C 1708.5,74.5 1712.5,74.5 1716.5,74.5C 1716.5,97.8333 1716.5,121.167 1716.5,144.5C 1726.83,144.5 1737.17,144.5 1747.5,144.5C 1747.5,148.167 1747.5,151.833 1747.5,155.5C 1733.17,155.5 1718.83,155.5 1704.5,155.5C 1704.5,128.5 1704.5,101.5 1704.5,74.5 Z"/></g>
<g><path style="opacity:0.941" fill="#383837" d="M 1762.5,74.5 C 1777.83,74.5 1793.17,74.5 1808.5,74.5C 1808.5,78.1667 1808.5,81.8333 1808.5,85.5C 1797.17,85.5 1785.83,85.5 1774.5,85.5C 1774.5,93.8333 1774.5,102.167 1774.5,110.5C 1785.5,110.5 1796.5,110.5 1807.5,110.5C 1807.5,114.167 1807.5,117.833 1807.5,121.5C 1796.5,121.5 1785.5,121.5 1774.5,121.5C 1774.5,129.167 1774.5,136.833 1774.5,144.5C 1786.5,144.5 1798.5,144.5 1810.5,144.5C 1810.5,148.167 1810.5,151.833 1810.5,155.5C 1794.5,155.5 1778.5,155.5 1762.5,155.5C 1762.5,128.5 1762.5,101.5 1762.5,74.5 Z"/></g>
<g><path style="opacity:0.902" fill="#383837" d="M 1826.5,74.5 C 1831.54,74.1725 1836.54,74.5059 1841.5,75.5C 1847.25,83.9976 1852.75,92.6642 1858,101.5C 1863.71,92.5809 1869.54,83.7476 1875.5,75C 1880.17,74.3333 1884.83,74.3333 1889.5,75C 1881.38,87.4152 1873.38,99.9152 1865.5,112.5C 1874.5,126.5 1883.5,140.5 1892.5,154.5C 1887.87,155.662 1883.2,155.828 1878.5,155C 1871.27,144.77 1864.44,134.27 1858,123.5C 1851.17,133.833 1844.33,144.167 1837.5,154.5C 1832.53,155.662 1827.53,155.829 1822.5,155C 1832.03,140.969 1841.36,126.802 1850.5,112.5C 1842.05,100.065 1834.05,87.3985 1826.5,74.5 Z"/></g>
<g><path style="opacity:0.914" fill="#383837" d="M 1907.5,74.5 C 1911.5,74.5 1915.5,74.5 1919.5,74.5C 1919.05,94.2211 1919.55,113.888 1921,133.5C 1924.37,141.693 1930.54,145.693 1939.5,145.5C 1949.61,145.223 1956.11,140.223 1959,130.5C 1959.5,111.836 1959.67,93.1696 1959.5,74.5C 1963.5,74.5 1967.5,74.5 1971.5,74.5C 1971.67,93.5029 1971.5,112.503 1971,131.5C 1964.82,152.349 1950.98,160.516 1929.5,156C 1917.02,152.521 1909.86,144.354 1908,131.5C 1907.5,112.503 1907.33,93.5029 1907.5,74.5 Z"/></g>
<g><path style="opacity:0.944" fill="#383837" d="M 272.5,79.5 C 282.833,79.5 293.167,79.5 303.5,79.5C 303.333,96.17 303.5,112.837 304,129.5C 304.957,135.127 308.124,138.96 313.5,141C 336.498,141.5 359.498,141.667 382.5,141.5C 384.808,133.048 389.475,126.215 396.5,121C 390.843,120.501 385.176,120.334 379.5,120.5C 381.785,103.035 391.118,90.8684 407.5,84C 412.375,82.198 417.375,80.8647 422.5,80C 461.833,79.3333 501.167,79.3333 540.5,80C 552.307,88.3066 563.973,96.8066 575.5,105.5C 588.967,97.1974 602.301,88.6974 615.5,80C 632.163,79.5001 648.83,79.3334 665.5,79.5C 665.333,96.5033 665.5,113.503 666,130.5C 667.5,136 671,139.5 676.5,141C 694.83,141.5 713.164,141.667 731.5,141.5C 731.5,120.833 731.5,100.167 731.5,79.5C 741.833,79.5 752.167,79.5 762.5,79.5C 762.5,100.167 762.5,120.833 762.5,141.5C 796.168,141.667 829.835,141.5 863.5,141C 870.042,136.013 869.709,131.346 862.5,127C 831.835,126.5 801.168,126.333 770.5,126.5C 771.324,100.839 784.324,85.3386 809.5,80C 838.165,79.5 866.831,79.3334 895.5,79.5C 895.5,84.8333 895.5,90.1667 895.5,95.5C 870.498,95.3334 845.498,95.5 820.5,96C 813.092,97.7379 807.759,102.071 804.5,109C 828.833,109.333 853.167,109.667 877.5,110C 896.066,111.893 904.233,122.06 902,140.5C 898.929,150.634 892.096,156.468 881.5,158C 807.456,158.988 733.456,158.654 659.5,157C 647.037,153.535 638.87,145.702 635,133.5C 634.667,118.5 634.333,103.5 634,88.5C 619.711,97.7224 605.544,107.056 591.5,116.5C 609.668,130.494 628.001,144.328 646.5,158C 631.5,158.667 616.5,158.667 601.5,158C 589.656,149.485 577.823,140.985 566,132.5C 552.099,140.868 538.266,149.368 524.5,158C 452.167,158.667 379.833,158.667 307.5,158C 284.778,155.276 273.278,142.442 273,119.5C 272.5,106.171 272.333,92.8375 272.5,79.5 Z M 505.5,88.5 C 520.603,99.09 535.603,109.923 550.5,121C 539.997,127.417 529.663,134.084 519.5,141C 485.828,141.833 452.162,141.667 418.5,140.5C 419.89,133.613 423.89,129.113 430.5,127C 453.498,126.5 476.498,126.333 499.5,126.5C 499.5,120.833 499.5,115.167 499.5,109.5C 472.159,109.833 444.825,109.5 417.5,108.5C 420.726,101.711 426.059,97.5445 433.5,96C 457.498,95.5 481.498,95.3334 505.5,95.5C 505.5,93.1667 505.5,90.8333 505.5,88.5 Z"/></g>
</svg>
