<?xml version="1.0" encoding="UTF-8"?>
<!DOCTYPE svg PUBLIC "-//W3C//DTD SVG 1.1//EN" "http://www.w3.org/Graphics/SVG/1.1/DTD/svg11.dtd">
<svg xmlns="http://www.w3.org/2000/svg" version="1.1" width="454px" height="144px" style="shape-rendering:geometricPrecision; text-rendering:geometricPrecision; image-rendering:optimizeQuality; fill-rule:evenodd; clip-rule:evenodd" xmlns:xlink="http://www.w3.org/1999/xlink">
<g><path style="opacity:0.933" fill="#008bd2" d="M 145.5,-0.5 C 146.167,-0.5 146.833,-0.5 147.5,-0.5C 139.35,32.4345 131.35,65.4345 123.5,98.5C 137.167,99.1667 150.833,99.8333 164.5,100.5C 163.359,107.472 159.692,112.639 153.5,116C 141.576,117.438 129.576,117.938 117.5,117.5C 114.61,111.614 109.944,107.948 103.5,106.5C 111.329,73.8516 119.162,41.1849 127,8.5C 128.36,5.26476 130.527,2.76476 133.5,1C 137.688,0.823821 141.688,0.323821 145.5,-0.5 Z"/></g>
<g><path style="opacity:0.918" fill="#008bd3" d="M 172.5,-0.5 C 180.5,-0.5 188.5,-0.5 196.5,-0.5C 200.425,1.82585 202.758,5.32585 203.5,10C 198.411,31.5208 193.245,53.0208 188,74.5C 182.825,83.1258 175.158,86.7925 165,85.5C 160.415,85.5687 155.915,85.0687 151.5,84C 147.963,81.592 146.296,78.2586 146.5,74C 150.948,52.7603 155.782,31.5936 161,10.5C 163.437,5.22618 167.271,1.55952 172.5,-0.5 Z M 174.5,12.5 C 179.511,12.3341 184.511,12.5007 189.5,13C 184.29,32.7077 179.457,52.5411 175,72.5C 170.333,71.1667 165.667,71.1667 161,72.5C 164.792,52.3793 169.292,32.3793 174.5,12.5 Z"/></g>
<g><path style="opacity:0.914" fill="#008bd3" d="M 224.5,-0.5 C 232.5,-0.5 240.5,-0.5 248.5,-0.5C 256.03,4.96647 257.53,11.9665 253,20.5C 248.822,22.3987 244.322,23.0653 239.5,22.5C 239.467,19.164 240.134,15.9973 241.5,13C 236.249,12.1963 231.082,12.363 226,13.5C 221.398,33.1868 217.064,52.8535 213,72.5C 217.667,71.1667 222.333,71.1667 227,72.5C 229.154,64.5512 230.988,56.5512 232.5,48.5C 230.833,48.5 229.167,48.5 227.5,48.5C 227.327,44.0267 228.327,39.86 230.5,36C 236.5,35.3333 242.5,35.3333 248.5,36C 248.957,36.414 249.291,36.914 249.5,37.5C 246.356,48.7433 243.523,60.0766 241,71.5C 238.833,78.3333 234.333,82.8333 227.5,85C 220.5,85.6667 213.5,85.6667 206.5,85C 201.341,83.347 198.674,79.847 198.5,74.5C 202.922,51.8849 208.422,29.5515 215,7.5C 217.772,4.21655 220.939,1.54988 224.5,-0.5 Z"/></g>
<g><path style="opacity:0.909" fill="#008bd3" d="M 269.5,-0.5 C 273.833,-0.5 278.167,-0.5 282.5,-0.5C 276.067,27.4937 269.567,55.4937 263,83.5C 258.822,85.3987 254.322,86.0653 249.5,85.5C 255.543,56.6645 262.209,27.9978 269.5,-0.5 Z"/></g>
<g><path style="opacity:0.916" fill="#008bd3" d="M 302.5,-0.5 C 310.833,-0.5 319.167,-0.5 327.5,-0.5C 330.966,2.13939 332.966,5.63939 333.5,10C 332.794,13.8616 331.961,17.6949 331,21.5C 326.599,22.4667 322.099,22.8 317.5,22.5C 317.692,19.3992 318.358,16.3992 319.5,13.5C 314.5,12.1667 309.5,12.1667 304.5,13.5C 303.083,18.3388 301.749,23.1721 300.5,28C 308.677,35.3447 316.677,42.8447 324.5,50.5C 322.477,57.7773 320.644,65.1107 319,72.5C 316.737,79.0972 312.237,83.2639 305.5,85C 298.5,85.6667 291.5,85.6667 284.5,85C 279.341,83.347 276.674,79.847 276.5,74.5C 277.016,70.4372 277.849,66.4372 279,62.5C 283.401,61.5333 287.901,61.2 292.5,61.5C 291.819,65.1974 291.319,68.8641 291,72.5C 295.667,71.1667 300.333,71.1667 305,72.5C 306.438,67.1398 307.938,61.8065 309.5,56.5C 302.638,49.4715 295.305,42.9715 287.5,37C 286.196,36.196 285.529,35.0293 285.5,33.5C 287.332,26.1715 289.165,18.8382 291,11.5C 293.355,5.98062 297.188,1.98062 302.5,-0.5 Z"/></g>
<g><path style="opacity:0.919" fill="#008bd3" d="M 341.5,-0.5 C 355.167,-0.5 368.833,-0.5 382.5,-0.5C 382.196,3.85481 381.196,8.02148 379.5,12C 374.845,12.4992 370.179,12.6658 365.5,12.5C 360.32,36.5561 354.82,60.5561 349,84.5C 344.921,85.6295 340.755,85.7961 336.5,85C 340.914,61.1588 346.247,37.3254 352.5,13.5C 348.217,12.5078 343.884,12.1744 339.5,12.5C 339.687,8.08698 340.354,3.75365 341.5,-0.5 Z"/></g>
<g><path style="opacity:0.908" fill="#008bd3" d="M 389.5,-0.5 C 394.167,-0.5 398.833,-0.5 403.5,-0.5C 396.52,28.087 389.853,56.7537 383.5,85.5C 378.639,85.9366 373.972,85.4366 369.5,84C 376.674,55.9717 383.341,27.8051 389.5,-0.5 Z"/></g>
<g><path style="opacity:0.912" fill="#008bd3" d="M 423.5,-0.5 C 431.5,-0.5 439.5,-0.5 447.5,-0.5C 449.833,1.16667 451.833,3.16667 453.5,5.5C 453.5,9.16667 453.5,12.8333 453.5,16.5C 452.812,19.0201 451.812,21.5201 450.5,24C 446.514,24.4988 442.514,24.6655 438.5,24.5C 438.412,20.6945 439.079,17.0278 440.5,13.5C 435.281,12.1958 430.114,12.1958 425,13.5C 419.888,33.0682 415.554,52.7349 412,72.5C 416.667,71.1667 421.333,71.1667 426,72.5C 426.918,68.5632 428.085,64.7298 429.5,61C 433.5,60.3333 437.5,60.3333 441.5,61C 441.921,78.2437 433.421,86.4104 416,85.5C 408.789,86.889 402.789,84.889 398,79.5C 397.333,76.1667 397.333,72.8333 398,69.5C 402.333,50.8333 406.667,32.1667 411,13.5C 412.954,6.71998 417.12,2.05332 423.5,-0.5 Z"/></g>
<g><path style="opacity:0.85" fill="#868889" d="M 102.5,106.5 C 92.1915,105.488 85.1915,109.821 81.5,119.5C 76.5,119.5 71.5,119.5 66.5,119.5C 64.3926,118.532 62.0593,118.198 59.5,118.5C 59.1667,118.5 58.8333,118.5 58.5,118.5C 58.1583,117.662 57.4916,117.328 56.5,117.5C 56.1583,116.662 55.4916,116.328 54.5,116.5C 54.5,115.833 54.1667,115.5 53.5,115.5C 53.1583,114.662 52.4916,114.328 51.5,114.5C 51.5,113.833 51.1667,113.5 50.5,113.5C 50.5,112.833 50.1667,112.5 49.5,112.5C 49.1667,112.5 48.8333,112.5 48.5,112.5C 48.5,111.833 48.1667,111.5 47.5,111.5C 47.5,110.833 47.1667,110.5 46.5,110.5C 46.5,109.833 46.1667,109.5 45.5,109.5C 45.1583,108.662 44.4916,108.328 43.5,108.5C 43.5,107.833 43.1667,107.5 42.5,107.5C 42.5,106.833 42.1667,106.5 41.5,106.5C 41.5,105.833 41.1667,105.5 40.5,105.5C 40.5,104.833 40.1667,104.5 39.5,104.5C 39.5,103.833 39.1667,103.5 38.5,103.5C 38.5,102.833 38.1667,102.5 37.5,102.5C 37.5,101.833 37.1667,101.5 36.5,101.5C 36.1583,100.662 35.4916,100.328 34.5,100.5C 34.5,99.8333 34.1667,99.5 33.5,99.5C 33.1583,98.6618 32.4916,98.3284 31.5,98.5C 31.1583,97.6618 30.4916,97.3284 29.5,97.5C 27.3926,96.5318 25.0593,96.1984 22.5,96.5C 22.1667,96.5 21.8333,96.5 21.5,96.5C 19.0259,95.8953 16.6926,94.8953 14.5,93.5C 14.7678,91.901 14.4345,90.5676 13.5,89.5C 13.534,79.1547 13.8673,68.8214 14.5,58.5C 15.6118,50.6564 16.6118,42.6564 17.5,34.5C 16.2455,32.6663 15.5789,30.6663 15.5,28.5C 33.1698,28.3334 50.8365,28.5001 68.5,29C 74.4783,30.907 79.3117,34.407 83,39.5C 91.52,61.2469 98.02,83.5802 102.5,106.5 Z M 91.5,79.5 C 87.6162,76.781 84.6162,73.281 82.5,69C 76.8433,67.3831 76.1767,64.7164 80.5,61C 80.1667,60.5 79.8333,60 79.5,59.5C 76.4798,62.3546 73.3132,65.0213 70,67.5C 69.3123,68.3317 69.479,68.9984 70.5,69.5C 71.646,68.8551 72.646,68.0217 73.5,67C 74.635,66.2506 75.635,66.4173 76.5,67.5C 77.0678,70.452 78.2344,73.1187 80,75.5C 79.7961,82.3373 79.9628,89.004 80.5,95.5C 76.5694,100.965 71.236,103.465 64.5,103C 62.299,99.0477 60.4657,94.8811 59,90.5C 57.4422,88.6411 55.6089,87.1411 53.5,86C 56.3788,84.3342 57.2121,81.8342 56,78.5C 48.1972,77.8184 40.3639,77.1518 32.5,76.5C 31.0627,74.9788 30.396,73.1454 30.5,71C 31.8122,64.8029 31.6456,58.6363 30,52.5C 28.0893,49.4724 25.5893,48.8057 22.5,50.5C 22.3032,44.4549 22.6365,38.4549 23.5,32.5C 38.5037,32.3334 53.5037,32.5001 68.5,33C 73.1849,34.3498 76.6849,37.1832 79,41.5C 84.6,53.6988 88.7666,66.3655 91.5,79.5 Z M 22.5,50.5 C 22.6871,59.8612 22.3538,69.1945 21.5,78.5C 20.5008,69.143 20.8342,59.8097 22.5,50.5 Z M 22.5,82.5 C 23.552,82.3505 24.552,82.5172 25.5,83C 24.0325,84.0975 23.1992,85.5975 23,87.5C 22.5065,85.8659 22.3398,84.1992 22.5,82.5 Z M 42.5,101.5 C 44.0269,101.427 45.0269,102.094 45.5,103.5C 43.9731,103.573 42.9731,102.906 42.5,101.5 Z M 75.5,113.5 C 73.4294,114.809 70.9294,115.475 68,115.5C 65.3097,115.497 62.8097,115.164 60.5,114.5C 65.5947,114.779 70.5947,114.445 75.5,113.5 Z"/></g>
<g><path style="opacity:0.918" fill="#868889" d="M 14.5,58.5 C 13.4486,63.646 12.7819,68.9793 12.5,74.5C 8.5,74.5 4.5,74.5 0.5,74.5C 0.0647614,66.3888 0.564761,58.3888 2,50.5C 2.5,50 3,49.5 3.5,49C 6.83333,48.3333 10.1667,48.3333 13.5,49C 14.4505,52.0567 14.7839,55.2234 14.5,58.5 Z"/></g>
<g><path style="opacity:0.939" fill="#008bd3" d="M 13.5,89.5 C 13.2322,91.099 13.5655,92.4324 14.5,93.5C 14.1872,97.0419 14.5206,100.375 15.5,103.5C 15.5,107.167 15.5,110.833 15.5,114.5C 13.8828,115.038 12.2161,115.371 10.5,115.5C 9.20895,115.263 8.20895,115.596 7.5,116.5C 6.16667,116.5 4.83333,116.5 3.5,116.5C 2.83333,116.5 2.5,116.833 2.5,117.5C 2.16667,117.5 1.83333,117.5 1.5,117.5C 0.994887,109.005 0.32822,100.338 -0.5,91.5C -0.5,86.8333 -0.5,82.1667 -0.5,77.5C 3.19846,75.494 7.19846,74.994 11.5,76C 12.142,80.6007 12.8087,85.1007 13.5,89.5 Z"/></g>
<g><path style="opacity:0.966" fill="#008cd3" d="M 21.5,96.5 C 21.8333,96.5 22.1667,96.5 22.5,96.5C 24.6074,97.4682 26.9407,97.8016 29.5,97.5C 29.8417,98.3382 30.5084,98.6716 31.5,98.5C 31.8417,99.3382 32.5084,99.6716 33.5,99.5C 34.1667,99.5 34.5,99.8333 34.5,100.5C 34.8417,101.338 35.5084,101.672 36.5,101.5C 37.1667,101.5 37.5,101.833 37.5,102.5C 38.1667,102.5 38.5,102.833 38.5,103.5C 39.1667,103.5 39.5,103.833 39.5,104.5C 40.1667,104.5 40.5,104.833 40.5,105.5C 41.1667,105.5 41.5,105.833 41.5,106.5C 42.1667,106.5 42.5,106.833 42.5,107.5C 43.1667,107.5 43.5,107.833 43.5,108.5C 43.8417,109.338 44.5084,109.672 45.5,109.5C 46.1667,109.5 46.5,109.833 46.5,110.5C 47.1667,110.5 47.5,110.833 47.5,111.5C 48.1667,111.5 48.5,111.833 48.5,112.5C 48.8333,112.5 49.1667,112.5 49.5,112.5C 50.1667,112.5 50.5,112.833 50.5,113.5C 51.1667,113.5 51.5,113.833 51.5,114.5C 51.8417,115.338 52.5084,115.672 53.5,115.5C 54.1667,115.5 54.5,115.833 54.5,116.5C 54.8417,117.338 55.5084,117.672 56.5,117.5C 56.8417,118.338 57.5084,118.672 58.5,118.5C 58.8333,118.5 59.1667,118.5 59.5,118.5C 61.6074,119.468 63.9407,119.802 66.5,119.5C 71.5,119.5 76.5,119.5 81.5,119.5C 81.3718,123.881 81.7051,128.215 82.5,132.5C 65.8333,132.5 49.1667,132.5 32.5,132.5C 33.6024,120.676 28.2691,114.676 16.5,114.5C 16.815,110.629 16.4816,106.962 15.5,103.5C 15.5,101.167 15.5,98.8333 15.5,96.5C 17.5,96.5 19.5,96.5 21.5,96.5 Z"/></g>
<g><path style="opacity:0.806" fill="#858989" d="M 188.5,98.5 C 191.5,98.5 194.5,98.5 197.5,98.5C 197.66,100.199 197.494,101.866 197,103.5C 194.595,104.274 192.095,104.774 189.5,105C 188.347,107.616 187.347,110.282 186.5,113C 189.082,112.745 191.748,112.578 194.5,112.5C 194.167,114.5 193.833,116.5 193.5,118.5C 190.753,118.187 188.086,118.52 185.5,119.5C 184.29,123.794 183.29,128.128 182.5,132.5C 180.5,132.5 178.5,132.5 176.5,132.5C 178.369,122.356 180.869,112.356 184,102.5C 185.397,100.93 186.897,99.5964 188.5,98.5 Z"/></g>
<g><path style="opacity:0.822" fill="#858989" d="M 221.5,98.5 C 225.257,98.0708 228.757,98.7375 232,100.5C 231.465,109.654 229.798,118.654 227,127.5C 226.215,129.286 225.049,130.786 223.5,132C 219.5,132.667 215.5,132.667 211.5,132C 210.833,130.667 210.167,129.333 209.5,128C 211.894,119.927 214.06,111.76 216,103.5C 217.352,101.251 219.185,99.5844 221.5,98.5 Z M 221.5,104.5 C 223.288,104.215 224.955,104.548 226.5,105.5C 224.516,112.767 222.85,120.1 221.5,127.5C 219.833,127.5 218.167,127.5 216.5,127.5C 218.293,119.868 219.96,112.201 221.5,104.5 Z"/></g>
<g><path style="opacity:0.814" fill="#858989" d="M 253.5,98.5 C 270.264,96.1995 273.931,102.033 264.5,116C 265.097,117.062 265.43,118.228 265.5,119.5C 264.349,123.766 263.683,128.1 263.5,132.5C 261.076,132.808 258.743,132.474 256.5,131.5C 257.974,127.269 258.974,122.936 259.5,118.5C 257.833,118.5 256.167,118.5 254.5,118.5C 253.974,122.936 252.974,127.269 251.5,131.5C 249.604,132.466 247.604,132.799 245.5,132.5C 248.167,121.167 250.833,109.833 253.5,98.5 Z M 258.5,104.5 C 260.288,104.215 261.955,104.548 263.5,105.5C 262.668,108.161 261.834,110.828 261,113.5C 259.667,112.167 258.333,112.167 257,113.5C 256.749,110.406 257.249,107.406 258.5,104.5 Z"/></g>
<g><path style="opacity:0.805" fill="#858989" d="M 291.5,98.5 C 293.167,98.5 294.833,98.5 296.5,98.5C 295.819,102.197 295.319,105.864 295,109.5C 297.041,105.916 299.208,102.416 301.5,99C 303.134,98.5065 304.801,98.3398 306.5,98.5C 304.766,103.798 302.099,108.632 298.5,113C 301.072,113.242 302.739,114.575 303.5,117C 302.099,122.101 301.099,127.267 300.5,132.5C 298.076,132.808 295.743,132.474 293.5,131.5C 295.138,127.312 296.138,122.978 296.5,118.5C 294.833,118.5 293.167,118.5 291.5,118.5C 291.138,122.978 290.138,127.312 288.5,131.5C 286.5,132.833 284.5,132.833 282.5,131.5C 285.63,120.507 288.63,109.507 291.5,98.5 Z"/></g>
<g><path style="opacity:0.798" fill="#858989" d="M 327.5,98.5 C 329.5,98.5 331.5,98.5 333.5,98.5C 331.579,107.931 329.246,117.264 326.5,126.5C 329.167,127.167 331.833,127.833 334.5,128.5C 333.754,129.736 333.421,131.07 333.5,132.5C 328.786,132.827 324.12,132.493 319.5,131.5C 322.326,120.528 324.993,109.528 327.5,98.5 Z"/></g>
<g><path style="opacity:0.784" fill="#858989" d="M 359.5,98.5 C 361.5,98.5 363.5,98.5 365.5,98.5C 363.319,109.224 360.819,119.89 358,130.5C 356.164,132.604 353.998,132.938 351.5,131.5C 354.64,120.605 357.307,109.605 359.5,98.5 Z"/></g>
<g><path style="opacity:0.796" fill="#858989" d="M 389.5,98.5 C 392.898,98.1796 396.232,98.513 399.5,99.5C 398.691,101.071 398.357,102.738 398.5,104.5C 390.943,102.975 387.776,105.975 389,113.5C 391.041,112.577 393.208,112.244 395.5,112.5C 395.739,114.467 395.406,116.301 394.5,118C 391.854,118.497 389.187,118.664 386.5,118.5C 385.71,122.872 384.71,127.206 383.5,131.5C 381.5,132.833 379.5,132.833 377.5,131.5C 380.155,121.882 382.655,112.215 385,102.5C 386.397,100.93 387.897,99.5964 389.5,98.5 Z"/></g>
<g><path style="opacity:0.796" fill="#858989" d="M 417.5,98.5 C 422.833,98.5 428.167,98.5 433.5,98.5C 433.167,100.5 432.833,102.5 432.5,104.5C 430.5,104.5 428.5,104.5 426.5,104.5C 424.647,113.563 422.48,122.563 420,131.5C 417.936,132.591 415.769,132.758 413.5,132C 416.338,122.981 418.672,113.814 420.5,104.5C 418.712,104.785 417.045,104.452 415.5,103.5C 416.174,101.805 416.841,100.138 417.5,98.5 Z"/></g>
<g><path style="opacity:0.881" fill="#f6f7f8" d="M 102.5,106.5 C 102.833,106.5 103.167,106.5 103.5,106.5C 109.944,107.948 114.61,111.614 117.5,117.5C 121.023,129.129 117.356,137.795 106.5,143.5C 102.167,143.5 97.8333,143.5 93.5,143.5C 88.3128,141.397 84.6462,137.73 82.5,132.5C 81.7051,128.215 81.3718,123.881 81.5,119.5C 85.1915,109.821 92.1915,105.488 102.5,106.5 Z"/></g>
<g><path style="opacity:1" fill="#838687" d="M 95.5,109.5 C 104.791,108.392 111.291,112.058 115,120.5C 116.322,134.843 109.822,141.677 95.5,141C 85.4516,136.731 81.9516,129.231 85,118.5C 87.5054,114.189 91.0054,111.189 95.5,109.5 Z"/></g>
<g><path style="opacity:0.902" fill="#f4f6f7" d="M 15.5,114.5 C 15.8333,114.5 16.1667,114.5 16.5,114.5C 28.2691,114.676 33.6024,120.676 32.5,132.5C 31.2924,137.701 28.2924,141.368 23.5,143.5C 20.1667,143.5 16.8333,143.5 13.5,143.5C 7.47154,140.798 4.1382,136.132 3.5,129.5C 3.61255,124.276 5.61255,119.943 9.5,116.5C 10.1667,116.5 10.5,116.167 10.5,115.5C 12.2161,115.371 13.8828,115.038 15.5,114.5 Z"/></g>
<g><path style="opacity:1" fill="#f4f4f4" d="M 96.5,116.5 C 105.817,115.984 109.65,120.317 108,129.5C 102.538,136.089 97.2046,136.089 92,129.5C 90.3794,123.923 91.8794,119.589 96.5,116.5 Z"/></g>
<g><path style="opacity:0.63" fill="#848383" d="M 3.5,116.5 C 4.83333,116.5 6.16667,116.5 7.5,116.5C 8.16667,116.5 8.83333,116.5 9.5,116.5C 5.61255,119.943 3.61255,124.276 3.5,129.5C 2.01086,125.764 1.3442,121.764 1.5,117.5C 1.83333,117.5 2.16667,117.5 2.5,117.5C 3.16667,117.5 3.5,117.167 3.5,116.5 Z"/></g>
<g><path style="opacity:1" fill="#838687" d="M 13.5,117.5 C 25.7086,116.206 30.8752,121.54 29,133.5C 22,142.833 15,142.833 8,133.5C 6.01647,126.66 7.8498,121.327 13.5,117.5 Z"/></g>
<g><path style="opacity:1" fill="#f2f2f2" d="M 15.5,122.5 C 24.3058,122.464 26.6391,126.297 22.5,134C 14.6851,136.522 11.5184,133.689 13,125.5C 14.045,124.627 14.8783,123.627 15.5,122.5 Z"/></g>
<g><path style="opacity:1" fill="#828586" d="M 97.5,120.5 C 103.989,120.156 105.989,122.99 103.5,129C 97.086,131.593 94.586,129.426 96,122.5C 96.7172,121.956 97.2172,121.289 97.5,120.5 Z"/></g>
<g><path style="opacity:1" fill="#7d8081" d="M 16.5,125.5 C 20.6772,124.842 22.1772,126.508 21,130.5C 18.4416,133.15 16.6082,132.65 15.5,129C 15.6483,127.744 15.9816,126.577 16.5,125.5 Z"/></g>
</svg>
