<svg width="40" height="40" viewBox="0 0 40 40" fill="none" xmlns="http://www.w3.org/2000/svg">
<path d="M19.6 39.2C30.4248 39.2 39.2 30.4248 39.2 19.6C39.2 8.77522 30.4248 0 19.6 0C8.77522 0 0 8.77522 0 19.6C0 30.4248 8.77522 39.2 19.6 39.2Z" fill="#56DEDE"/>
<path d="M35.4999 30.8997C35.4999 30.8997 35.9999 30.2997 36.5999 29.1997C36.1999 29.7997 35.7999 30.4997 35.3999 30.9997C35.4999 30.9997 35.4999 30.9997 35.4999 30.8997Z" fill="#A5A3A2"/>
<path d="M27.5 37.4C30.7 36 33.4 33.8 35.4 31C32.9 34.4 30 36.3 27.5 37.4Z" fill="#A5A3A2"/>
<path d="M37.8 26.6997C37.4 27.6997 37 28.4997 36.6 29.1997C37.1 28.3997 37.4 27.5997 37.8 26.6997Z" fill="#A5A3A2"/>
<path d="M37.7999 26.6999C38.5 24.8999 38.8999 22.9999 39.0999 21.0999L28.2999 10.3999L27.6 13.1999L14.8 14.0999L11.4 15.4999L11.1 22.2999L10.2 21.4999L10.6 27.2999L10.4 27.5999L21.9 38.9999C23.9 38.7999 25.8 38.1999 27.5 37.3999C29.9 36.2999 32.9 34.3999 35.4 30.9999C35.8 30.3999 36.1999 29.7999 36.5999 29.1999C36.9999 28.4999 37.4 27.6999 37.7999 26.6999Z" fill="#2CC9DE"/>
<path d="M18.9 21.3999C18.8 21.3999 18.8 21.4999 18.8 21.5999L19.9 23.0999L21 21.4999C20 21.3999 19.2 21.3999 18.9 21.3999Z" fill="#56DEDE"/>
<path d="M15.8 20.6001C16.6285 20.6001 17.3 19.9285 17.3 19.1001C17.3 18.2717 16.6285 17.6001 15.8 17.6001C14.9716 17.6001 14.3 18.2717 14.3 19.1001C14.3 19.9285 14.9716 20.6001 15.8 20.6001Z" fill="#56DEDE"/>
<path d="M24.8 20.6001C25.6285 20.6001 26.3 19.9285 26.3 19.1001C26.3 18.2717 25.6285 17.6001 24.8 17.6001C23.9716 17.6001 23.3 18.2717 23.3 19.1001C23.3 19.9285 23.9716 20.6001 24.8 20.6001Z" fill="#56DEDE"/>
<path d="M15.1 15.5C14.7 15.5 14.4 15.6 14.1 15.7C13.6 15.9 13.1 16.2 12.8 16.7C12.4 17.2 12.1 17.9 12.1 18.6C12.1 20.3 13.4 21.6 15.1 21.6C16.8 21.6 18.1 20.3 18.1 18.6C18.1 16.8 16.8 15.5 15.1 15.5ZM15.1 20C14.3 20 13.6 19.3 13.6 18.5C13.6 17.7 14.3 17 15.1 17C15.9 17 16.6 17.7 16.6 18.5C16.6 19.3 15.9 20 15.1 20Z" fill="white"/>
<path d="M26.4 16.5999C26 16.1999 25.6 15.7999 25 15.5999C24.7 15.4999 24.4 15.3999 24 15.3999C22.3 15.3999 21 16.6999 21 18.3999C21 20.0999 22.3 21.3999 24 21.3999C25.7 21.3999 27 20.0999 27 18.3999C27 17.7999 26.8 17.0999 26.4 16.5999ZM24 19.9999C23.2 19.9999 22.5 19.2999 22.5 18.4999C22.5 17.6999 23.2 16.9999 24 16.9999C24.8 16.9999 25.5 17.6999 25.5 18.4999C25.5 19.2999 24.9 19.9999 24 19.9999Z" fill="white"/>
<path d="M28.5 9.80011C28.5 9.70011 28.4 9.70011 28.2999 9.70011C27.1999 11.1001 23.7 12.1001 19.6 12.1001C15.5 12.1001 12 11.1001 10.9 9.70011C10.8 9.60011 10.7 9.70011 10.7 9.80011C10.7 11.8001 10.7 22.5001 10.7 22.5001C10.7 27.4001 14.7 31.4001 19.6 31.4001C24.5 31.4001 28.5 27.4001 28.5 22.5001C28.5 22.5001 28.5 11.8001 28.5 9.80011ZM15.1 21.9001C13.2 21.9001 11.6 20.3001 11.6 18.4001C11.6 17.6001 11.9 16.8001 12.4 16.2001C12.8 15.7001 13.3 15.3001 14 15.1001C14.4 15.0001 14.8 14.9001 15.2 14.9001C17.1 14.9001 18.7 16.5001 18.7 18.4001C18.7 20.3001 17 21.9001 15.1 21.9001ZM20.3 22.2001L19.6 23.1001C19.5 23.2001 19.4 23.2001 19.4 23.1001L18.7 22.2001L18.1 21.4001C18 21.3001 18.1 21.2001 18.2 21.2001C18.6 21.2001 19 21.1001 19.4 21.1001C19.8 21.1001 20.3 21.1001 20.6 21.2001C20.7 21.2001 20.8 21.3001 20.7 21.4001L20.3 22.2001ZM24 21.9001C22.1 21.9001 20.5 20.3001 20.5 18.4001C20.5 16.5001 22.1 14.9001 24 14.9001C24.4 14.9001 24.8 15.0001 25.1 15.1001C25.7 15.3001 26.3 15.7001 26.7 16.2001C27.2 16.8001 27.5 17.6001 27.5 18.4001C27.5 20.4001 26 21.9001 24 21.9001Z" fill="white"/>
<path d="M10.3 21.7999C10.3 21.4999 9.89996 21.2999 9.69996 21.4999C8.89996 22.2999 8.69996 23.8999 9.19996 25.4999C9.69996 26.8999 10.6 27.9999 11.6 28.2999C11.9 28.3999 12.2 27.9999 12 27.7999C10.9 26.2999 10.3 24.3999 10.3 22.3999V21.7999Z" fill="white"/>
<path d="M29.3999 21.4999C29.1999 21.2999 28.7999 21.3999 28.7999 21.7999V22.4999C28.7999 24.4999 28.1999 26.3999 27.0999 27.8999C26.8999 28.1999 27.1999 28.5999 27.4999 28.3999C28.4999 28.0999 29.4999 26.9999 29.8999 25.5999C30.4999 23.8999 30.1999 22.2999 29.3999 21.4999Z" fill="white"/>
</svg>
