<?xml version="1.0" encoding="UTF-8"?>
<!DOCTYPE svg PUBLIC "-//W3C//DTD SVG 1.1//EN" "http://www.w3.org/Graphics/SVG/1.1/DTD/svg11.dtd">
<svg xmlns="http://www.w3.org/2000/svg" version="1.1" width="260px" height="80px" style="shape-rendering:geometricPrecision; text-rendering:geometricPrecision; image-rendering:optimizeQuality; fill-rule:evenodd; clip-rule:evenodd" xmlns:xlink="http://www.w3.org/1999/xlink">
<g><path style="opacity:0.407" fill="#221f1f" d="M 153.5,2.5 C 154.5,2.5 155.5,2.5 156.5,2.5C 156.5,26.8333 156.5,51.1667 156.5,75.5C 155.5,75.5 154.5,75.5 153.5,75.5C 153.5,51.1667 153.5,26.8333 153.5,2.5 Z"/></g>
<g><path style="opacity:0.979" fill="#ed1c2e" d="M 167.5,2.5 C 192.167,2.5 216.833,2.5 241.5,2.5C 241.5,26.8333 241.5,51.1667 241.5,75.5C 216.833,75.5 192.167,75.5 167.5,75.5C 167.5,51.1667 167.5,26.8333 167.5,2.5 Z"/></g>
<g><path style="opacity:1" fill="#ffe9ea" d="M 199.5,19.5 C 207.556,18.5765 214.889,20.4099 221.5,25C 227.121,34.1114 224.788,40.4448 214.5,44C 205.681,46.6568 197.347,45.6568 189.5,41C 182.833,35.3333 182.833,29.6667 189.5,24C 192.815,22.1702 196.149,20.6702 199.5,19.5 Z"/></g>
<g><path style="opacity:1" fill="#ed262d" d="M 206.5,22.5 C 210.439,21.0314 213.772,22.0314 216.5,25.5C 214.782,28.0139 212.449,28.8472 209.5,28C 209.011,25.7908 208.011,23.9575 206.5,22.5 Z"/></g>
<g><path style="opacity:1" fill="#ed2327" d="M 198.5,21.5 C 200.199,21.3398 201.866,21.5065 203.5,22C 201.513,24.1398 200.18,26.6398 199.5,29.5C 192.027,27.2953 191.694,24.6287 198.5,21.5 Z"/></g>
<g><path style="opacity:1" fill="#ec1d25" d="M 203.5,24.5 C 206.297,24.9666 207.631,26.6333 207.5,29.5C 205.833,29.5 204.167,29.5 202.5,29.5C 202.629,27.7839 202.962,26.1172 203.5,24.5 Z"/></g>
<g><path style="opacity:1" fill="#ed202b" d="M 219.5,26.5 C 222.816,32.0618 221.816,36.8951 216.5,41C 213.685,42.7213 210.685,43.3879 207.5,43C 208.971,39.6791 209.637,36.1791 209.5,32.5C 212.311,32.1743 214.978,31.3409 217.5,30C 218.823,29.1841 219.489,28.0174 219.5,26.5 Z"/></g>
<g><path style="opacity:0.753" fill="#221f1f" d="M 17.5,30.5 C 19.0418,31.3007 20.7085,31.634 22.5,31.5C 23.504,40.8209 24.504,40.8209 25.5,31.5C 27.5,31.5 29.5,31.5 31.5,31.5C 32.496,40.8209 33.496,40.8209 34.5,31.5C 36.1439,31.7135 37.6439,31.3802 39,30.5C 39.1667,31 39.3333,31.5 39.5,32C 38.058,36.8229 36.7247,41.6562 35.5,46.5C 33.8008,46.6602 32.1341,46.4935 30.5,46C 28.4603,37.2577 27.127,37.4244 26.5,46.5C 24.5328,46.7394 22.6995,46.4061 21,45.5C 19.3094,40.6009 18.1427,35.6009 17.5,30.5 Z"/></g>
<g><path style="opacity:0.742" fill="#221f1f" d="M 76.5,31.5 C 79.8333,31.5 83.1667,31.5 86.5,31.5C 86.5,32.8333 86.5,34.1667 86.5,35.5C 79.8333,35.8333 79.8333,36.1667 86.5,36.5C 86.5,37.8333 86.5,39.1667 86.5,40.5C 84.712,40.2148 83.0453,40.5481 81.5,41.5C 83.396,42.4656 85.396,42.7989 87.5,42.5C 87.5,43.8333 87.5,45.1667 87.5,46.5C 81.7945,46.8288 76.1278,46.4954 70.5,45.5C 68.1013,40.0254 67.1013,40.3588 67.5,46.5C 60.825,46.6663 54.1583,46.4996 47.5,46C 46.8095,44.9326 46.3095,43.7659 46,42.5C 45,43.8333 44,43.8333 43,42.5C 42.3096,46.1899 40.1429,47.3566 36.5,46C 38.8634,41.41 40.53,36.5767 41.5,31.5C 43.604,31.2011 45.604,31.5344 47.5,32.5C 49.0987,36.7959 50.5987,41.1292 52,45.5C 52.4992,40.8452 52.6658,36.1785 52.5,31.5C 54.1667,31.5 55.8333,31.5 57.5,31.5C 57.3347,35.1817 57.5014,38.8484 58,42.5C 59.3333,41.1667 60.6667,41.1667 62,42.5C 62.4986,38.8484 62.6653,35.1817 62.5,31.5C 64.1667,31.5 65.8333,31.5 67.5,31.5C 67.1013,37.6412 68.1013,37.9746 70.5,32.5C 72.1083,31.6816 73.7749,31.0149 75.5,30.5C 76.1067,30.6236 76.44,30.9569 76.5,31.5 Z M 76.5,31.5 C 76.6657,35.8461 76.499,40.1794 76,44.5C 74.6924,42.3586 73.1924,40.3586 71.5,38.5C 73.434,36.2757 75.1006,33.9424 76.5,31.5 Z"/></g>
<g><path style="opacity:1" fill="#ed212b" d="M 189.5,26.5 C 192.091,30.2984 195.757,32.2984 200.5,32.5C 203.395,45.961 199.562,47.2943 189,36.5C 188.253,33.0764 188.42,29.7431 189.5,26.5 Z"/></g>
<g><path style="opacity:0.768" fill="#221f1f" d="M 100.5,35.5 C 100.117,37.4085 99.1166,38.9085 97.5,40C 98.8333,42 100.167,44 101.5,46C 97.8493,47.123 95.3493,45.9563 94,42.5C 93.51,43.7932 93.3433,45.1266 93.5,46.5C 91.8333,46.5 90.1667,46.5 88.5,46.5C 88.5,41.5 88.5,36.5 88.5,31.5C 91.5184,31.3354 94.5184,31.502 97.5,32C 98.6364,33.1451 99.6364,34.3117 100.5,35.5 Z"/></g>
<g><path style="opacity:0.767" fill="#221f1f" d="M 111.5,35.5 C 110.5,35.5 109.5,35.5 108.5,35.5C 108.5,39.1667 108.5,42.8333 108.5,46.5C 106.833,46.5 105.167,46.5 103.5,46.5C 103.5,42.8333 103.5,39.1667 103.5,35.5C 102.5,35.5 101.5,35.5 100.5,35.5C 100.5,34.1667 100.5,32.8333 100.5,31.5C 104.167,31.5 107.833,31.5 111.5,31.5C 111.5,32.8333 111.5,34.1667 111.5,35.5 Z"/></g>
<g><path style="opacity:0.788" fill="#221f1f" d="M 111.5,35.5 C 114.599,31.7597 118.599,30.593 123.5,32C 125.487,33.3189 126.654,35.1523 127,37.5C 127.495,35.5273 127.662,33.5273 127.5,31.5C 132.448,31.2673 135.615,33.6006 137,38.5C 137.497,36.1902 137.663,33.8568 137.5,31.5C 138.833,31.5 140.167,31.5 141.5,31.5C 141.5,36.5 141.5,41.5 141.5,46.5C 139.712,46.7852 138.045,46.4519 136.5,45.5C 133.157,37.1888 131.824,37.5221 132.5,46.5C 130.833,46.5 129.167,46.5 127.5,46.5C 127.662,44.4727 127.495,42.4727 127,40.5C 125.02,45.9055 121.186,47.7389 115.5,46C 111.952,43.4093 110.618,39.9093 111.5,35.5 Z M 117.5,35.5 C 123.415,36.6649 123.915,38.9982 119,42.5C 116.354,40.6332 115.854,38.2999 117.5,35.5 Z"/></g>
<g><path style="opacity:1" fill="#f25a63" d="M 207.5,33.5 C 205.219,33.0773 203.552,33.744 202.5,35.5C 201.596,34.791 201.263,33.791 201.5,32.5C 203.735,32.2053 205.735,32.5386 207.5,33.5 Z"/></g>
<g><path style="opacity:1" fill="#ec1a25" d="M 207.5,33.5 C 207.868,36.0558 207.034,38.0558 205,39.5C 202.98,38.9681 202.147,37.6348 202.5,35.5C 203.552,33.744 205.219,33.0773 207.5,33.5 Z"/></g>
<g><path style="opacity:1" fill="#fee2e3" d="M 177.5,49.5 C 180.247,49.1866 182.914,49.52 185.5,50.5C 184.675,51.3857 183.675,51.719 182.5,51.5C 181.833,60.8333 181.167,60.8333 180.5,51.5C 178.821,51.7148 177.821,51.0481 177.5,49.5 Z"/></g>
<g><path style="opacity:1" fill="#fedddf" d="M 215.5,49.5 C 217.924,49.1924 220.257,49.5258 222.5,50.5C 221.675,51.3857 220.675,51.719 219.5,51.5C 219.808,53.924 219.474,56.2573 218.5,58.5C 217.745,55.3484 216.745,52.3484 215.5,49.5 Z"/></g>
<g><path style="opacity:1" fill="#ffe2e3" d="M 188.5,49.5 C 195.486,49.331 197.153,52.1643 193.5,58C 186.416,58.475 184.749,55.6417 188.5,49.5 Z"/></g>
<g><path style="opacity:1" fill="#fee8e9" d="M 196.5,49.5 C 198.384,49.7118 199.717,50.7118 200.5,52.5C 201.275,50.5247 202.609,49.6913 204.5,50C 202.374,52.4331 201.041,55.2665 200.5,58.5C 199.147,55.4894 197.814,52.4894 196.5,49.5 Z"/></g>
<g><path style="opacity:1" fill="#fee3e4" d="M 206.5,49.5 C 213.997,48.8038 215.997,51.6372 212.5,58C 205.492,58.5082 203.492,55.6749 206.5,49.5 Z"/></g>
<g><path style="opacity:1" fill="#ed2829" d="M 208.5,50.5 C 211.966,51.109 212.966,52.9423 211.5,56C 210.207,56.49 208.873,56.6567 207.5,56.5C 207.325,54.3792 207.659,52.3792 208.5,50.5 Z"/></g>
<g><path style="opacity:1" fill="#ec2027" d="M 188.5,51.5 C 192.676,50.8307 194.009,52.3307 192.5,56C 191.207,56.49 189.873,56.6567 188.5,56.5C 188.5,54.8333 188.5,53.1667 188.5,51.5 Z"/></g>
<g><path style="opacity:1" fill="#ffe5e5" d="M 225.5,49.5 C 226.822,49.33 227.989,49.6634 229,50.5C 229.695,52.7221 230.528,54.8887 231.5,57C 231.167,57.5 230.833,58 230.5,58.5C 228.167,55.8333 225.833,55.8333 223.5,58.5C 223.167,58.1667 222.833,57.8333 222.5,57.5C 223.513,54.8122 224.513,52.1456 225.5,49.5 Z"/></g>
</svg>
