<svg xmlns="http://www.w3.org/2000/svg" viewBox="0 0 40 30">
  <rect width="40" height="30" fill="#fff"/>
  <g fill="#bd3d44">
    <rect width="40" height="2.31" y="0"/>
    <rect width="40" height="2.31" y="4.62"/>
    <rect width="40" height="2.31" y="9.24"/>
    <rect width="40" height="2.31" y="13.86"/>
    <rect width="40" height="2.31" y="18.48"/>
    <rect width="40" height="2.31" y="23.1"/>
    <rect width="40" height="2.31" y="27.72"/>
  </g>
  <rect width="16" height="16.15" fill="#192f5d"/>
  <g fill="#fff">
    <path d="M1.5 1.5l.7.7-.7.7-.7-.7zm3.1 0l.7.7-.7.7-.7-.7zm3.1 0l.7.7-.7.7-.7-.7zm3.1 0l.7.7-.7.7-.7-.7zm-7.7 3.1l.7.7-.7.7-.7-.7zm3.1 0l.7.7-.7.7-.7-.7zm3.1 0l.7.7-.7.7-.7-.7zm3.1 0l.7.7-.7.7-.7-.7zm-7.7 3.1l.7.7-.7.7-.7-.7zm3.1 0l.7.7-.7.7-.7-.7zm3.1 0l.7.7-.7.7-.7-.7zm3.1 0l.7.7-.7.7-.7-.7zm-7.7 3.1l.7.7-.7.7-.7-.7zm3.1 0l.7.7-.7.7-.7-.7zm3.1 0l.7.7-.7.7-.7-.7zm3.1 0l.7.7-.7.7-.7-.7z"/>
  </g>
</svg> 